<?xml version="1.0" encoding="utf-8"?>
<!-- Generator: Adobe Illustrator 24.0.1, SVG Export Plug-In . SVG Version: 6.00 Build 0)  -->
<svg version="1.1" id="Calque_1" xmlns="http://www.w3.org/2000/svg" xmlns:xlink="http://www.w3.org/1999/xlink" x="0px" y="0px"
	 viewBox="0 0 1116 841.89" style="enable-background:new 0 0 1116 841.89;" xml:space="preserve">
<path d="M340.35,315.08v-4.43c2.83-1.7,5.23-3.28,7.21-4.76c1.98-1.48,3.6-2.97,4.85-4.48c1.26-1.51,2.17-3.08,2.73-4.71
	c0.57-1.63,0.85-3.42,0.85-5.37c0-2.01-0.36-3.47-1.08-4.38c-0.72-0.91-1.52-1.37-2.4-1.37c-0.38,0-0.86,0.08-1.46,0.24
	c-0.6,0.16-1.23,0.33-1.88,0.52c-0.66,0.19-1.3,0.36-1.93,0.52c-0.63,0.16-1.13,0.24-1.51,0.24c-1.26,0-2.47-0.25-3.63-0.75
	c-1.16-0.5-2.18-1.19-3.06-2.07c-0.88-0.88-1.59-1.92-2.12-3.11c-0.54-1.19-0.8-2.51-0.8-3.96c0-1.82,0.36-3.41,1.08-4.76
	c0.72-1.35,1.66-2.48,2.83-3.39c1.16-0.91,2.48-1.6,3.96-2.07c1.48-0.47,2.97-0.71,4.48-0.71c2.07,0,4.1,0.49,6.08,1.46
	c1.98,0.97,3.72,2.29,5.23,3.96c1.51,1.67,2.73,3.63,3.67,5.89s1.41,4.68,1.41,7.26c0,3.02-0.47,5.98-1.41,8.91
	c-0.94,2.92-2.4,5.7-4.38,8.34c-1.98,2.64-4.51,5.07-7.59,7.3C348.39,311.61,344.68,313.51,340.35,315.08z"/>
</svg>
