<svg id="a1a96890-b75b-4209-a2d8-31d6f774a47f" data-name="Calque 1" xmlns="http://www.w3.org/2000/svg" viewBox="0 0 96.42 146.29"><defs><style>.b3467132-6264-4560-88d8-4e6978765834{fill:#1d1d1b;}</style></defs><title>c</title><path class="b3467132-6264-4560-88d8-4e6978765834" d="M74.94,398.71A28.94,28.94,0,0,1,64,406.81a32.38,32.38,0,0,1-12.45,2.51,34.47,34.47,0,0,1-13.7-2.89,37.19,37.19,0,0,1-12.16-8.49,44.69,44.69,0,0,1-10.13-15.35,43.83,43.83,0,0,1-3-18,109.52,109.52,0,0,1,5.6-29.44,161.29,161.29,0,0,1,12.15-27.5q3.48-5.79,9.08-13.51a126.38,126.38,0,0,1,12.35-14.57A84.92,84.92,0,0,1,66,267.85Q73.38,263,80.53,263a23.77,23.77,0,0,1,13.13,3.86,31.85,31.85,0,0,1,9.84,10,44.11,44.11,0,0,1,4.25,9.17,25.09,25.09,0,0,1,1.16,9.75,37.92,37.92,0,0,1-5.6,18.43,39.15,39.15,0,0,1-13.7,13.61,11.4,11.4,0,0,1-2.9,1.15,3.32,3.32,0,0,1-1.93.2,10.89,10.89,0,0,1-1.93-.58,24.47,24.47,0,0,1-7.53-3.38,12.12,12.12,0,0,1-5-6.46,26.92,26.92,0,0,0,10.32-4.73,55.63,55.63,0,0,0,9.84-9,58.79,58.79,0,0,0,7.63-11,30.8,30.8,0,0,0,3.66-10.61,4,4,0,0,0-.19-1.55,2.3,2.3,0,0,0-2.31-.38,50.85,50.85,0,0,0-16.41,8A97.84,97.84,0,0,0,68,302.79a121.81,121.81,0,0,0-12.45,15.92,146.4,146.4,0,0,0-9.17,15.92q-3.09,6.38-5.88,13.7A113,113,0,0,0,36,363.2,75.21,75.21,0,0,0,34,378.25a43.65,43.65,0,0,0,2.12,14.67q.39,1.15.78,2.22a5.35,5.35,0,0,0,1.35,2,5.58,5.58,0,0,0,3.09,1.64,9,9,0,0,0,3.47-.09,12.55,12.55,0,0,0,5-2.9A30.42,30.42,0,0,0,54.09,391a40.85,40.85,0,0,0,3.38-5.6q1.45-2.89,2.41-5.21a72,72,0,0,0,4.25-13,30.31,30.31,0,0,0,0-13.6c2.19,1.54,4.34,3.08,6.47,4.63s4.21,3.22,6.27,5a41.09,41.09,0,0,1,2.8,3.08,19.52,19.52,0,0,1,2.22,3.48A18.55,18.55,0,0,1,83,376.32a28.66,28.66,0,0,1-1.83,12.06A31.76,31.76,0,0,1,74.94,398.71Z" transform="translate(-12.56 -263.03)"/></svg>