<?xml version="1.0" encoding="utf-8"?>
<!-- Generator: Adobe Illustrator 24.0.1, SVG Export Plug-In . SVG Version: 6.00 Build 0)  -->
<svg version="1.1" id="Calque_1" xmlns="http://www.w3.org/2000/svg" xmlns:xlink="http://www.w3.org/1999/xlink" x="0px" y="0px"
	 viewBox="0 0 1116 841.89" style="enable-background:new 0 0 1116 841.89;" xml:space="preserve">
<path d="M553.18,398.71c-3.22,3.73-6.85,6.43-10.91,8.11c-4.05,1.67-8.2,2.51-12.45,2.51c-4.63,0-9.2-0.97-13.7-2.9
	c-4.5-1.93-8.56-4.76-12.16-8.49c-4.51-4.5-7.88-9.62-10.13-15.34c-2.25-5.72-3.25-11.74-2.99-18.05
	c0.51-10.04,2.38-19.85,5.6-29.43c3.21-9.58,7.27-18.75,12.16-27.5c2.32-3.86,5.34-8.36,9.07-13.51c3.73-5.14,7.85-10,12.35-14.57
	c4.5-4.57,9.23-8.46,14.19-11.68c4.95-3.21,9.81-4.83,14.57-4.83c4.76,0,9.13,1.29,13.12,3.86c3.99,2.58,7.27,5.92,9.84,10.04
	c1.8,2.96,3.21,6.02,4.25,9.17c1.03,3.15,1.41,6.4,1.16,9.75c-0.26,6.56-2.12,12.71-5.6,18.43c-3.47,5.73-8.04,10.26-13.7,13.61
	c-0.9,0.52-1.87,0.9-2.9,1.16c-0.65,0.26-1.29,0.32-1.93,0.19c-0.65-0.13-1.29-0.32-1.93-0.58c-2.58-0.64-5.08-1.77-7.53-3.38
	c-2.45-1.61-4.12-3.76-5.02-6.47c3.34-0.64,6.79-2.22,10.33-4.73c3.54-2.51,6.82-5.5,9.84-8.97c3.02-3.47,5.56-7.14,7.62-11
	c2.06-3.86,3.28-7.4,3.67-10.61c0-0.77-0.07-1.28-0.19-1.54c-0.52-0.51-1.29-0.64-2.32-0.39c-5.66,1.54-11.13,4.22-16.41,8.01
	c-5.28,3.8-10.23,8.2-14.86,13.22s-8.78,10.33-12.45,15.92c-3.67,5.6-6.73,10.9-9.17,15.92c-2.06,4.25-4.02,8.81-5.89,13.7
	c-1.87,4.89-3.38,9.84-4.54,14.86s-1.8,10.04-1.93,15.05c-0.13,5.02,0.58,9.91,2.12,14.67c0.26,0.77,0.51,1.51,0.77,2.22
	c0.26,0.71,0.71,1.38,1.35,2.03c0.9,0.9,1.93,1.45,3.09,1.64s2.32,0.16,3.47-0.1c1.8-0.52,3.47-1.48,5.02-2.9
	c1.54-1.41,2.96-3.02,4.25-4.82c1.29-1.8,2.41-3.67,3.38-5.6c0.96-1.93,1.77-3.67,2.41-5.21c1.8-4.12,3.21-8.46,4.25-13.03
	c1.03-4.57,1.03-9.1,0-13.61c2.19,1.54,4.34,3.09,6.47,4.63s4.21,3.22,6.27,5.02c1.03,1.03,1.96,2.06,2.8,3.09
	c0.83,1.03,1.57,2.19,2.22,3.47c0.77,2.06,1.16,4.25,1.16,6.56c0.26,4.12-0.36,8.14-1.83,12.06
	C557.97,392.31,555.88,395.75,553.18,398.71z"/>
</svg>
