<svg id="aa0752ea-506e-4e7d-b995-c15fbc6a40f9" data-name="Calque 1" xmlns="http://www.w3.org/2000/svg" viewBox="0 0 1090.4 170.76"><defs><style>.a9446481-0410-43fb-9538-64c41a7f38c8{fill:#1d1d1b;}</style></defs><title>chefcompass</title><path class="a9446481-0410-43fb-9538-64c41a7f38c8" d="M74.94,398.71A28.94,28.94,0,0,1,64,406.81a32.38,32.38,0,0,1-12.45,2.51,34.47,34.47,0,0,1-13.7-2.89,37.19,37.19,0,0,1-12.16-8.49,44.69,44.69,0,0,1-10.13-15.35,43.83,43.83,0,0,1-3-18,109.52,109.52,0,0,1,5.6-29.44,161.29,161.29,0,0,1,12.15-27.5q3.48-5.79,9.08-13.51a126.38,126.38,0,0,1,12.35-14.57A84.92,84.92,0,0,1,66,267.85Q73.38,263,80.53,263a23.77,23.77,0,0,1,13.13,3.86,31.85,31.85,0,0,1,9.84,10,44.11,44.11,0,0,1,4.25,9.17,25.09,25.09,0,0,1,1.16,9.75,37.92,37.92,0,0,1-5.6,18.43,39.15,39.15,0,0,1-13.7,13.61,11.4,11.4,0,0,1-2.9,1.15,3.32,3.32,0,0,1-1.93.2,10.89,10.89,0,0,1-1.93-.58,24.47,24.47,0,0,1-7.53-3.38,12.12,12.12,0,0,1-5-6.46,26.92,26.92,0,0,0,10.32-4.73,55.63,55.63,0,0,0,9.84-9,58.79,58.79,0,0,0,7.63-11,30.8,30.8,0,0,0,3.66-10.61,4,4,0,0,0-.19-1.55,2.3,2.3,0,0,0-2.31-.38,50.85,50.85,0,0,0-16.41,8A97.84,97.84,0,0,0,68,302.79a121.81,121.81,0,0,0-12.45,15.92,146.4,146.4,0,0,0-9.17,15.92q-3.09,6.38-5.88,13.7A113,113,0,0,0,36,363.2,75.21,75.21,0,0,0,34,378.25a43.65,43.65,0,0,0,2.12,14.67q.39,1.15.78,2.22a5.35,5.35,0,0,0,1.35,2,5.58,5.58,0,0,0,3.09,1.64,9,9,0,0,0,3.47-.09,12.55,12.55,0,0,0,5-2.9A30.42,30.42,0,0,0,54.09,391a40.85,40.85,0,0,0,3.38-5.6q1.45-2.89,2.41-5.21a72,72,0,0,0,4.25-13,30.31,30.31,0,0,0,0-13.6c2.19,1.54,4.34,3.08,6.47,4.63s4.21,3.22,6.27,5a41.09,41.09,0,0,1,2.8,3.08,19.52,19.52,0,0,1,2.22,3.48A18.55,18.55,0,0,1,83,376.32a28.66,28.66,0,0,1-1.83,12.06A31.76,31.76,0,0,1,74.94,398.71Z" transform="translate(-12.56 -262.32)"/><path class="a9446481-0410-43fb-9538-64c41a7f38c8" d="M176.26,396a7.58,7.58,0,0,1-5,.19,17.85,17.85,0,0,1-7.33-2.9,18.41,18.41,0,0,1-5.6-5.79,20.69,20.69,0,0,1-2.89-9,39,39,0,0,1,.38-9.46,77.7,77.7,0,0,1,2.22-9.55q1.46-4.83,2.61-9.07,1.35-5.4,2.6-10.71T166,329c.51-1.54,1-3.08,1.35-4.63a28.69,28.69,0,0,0,.77-4.82,4.82,4.82,0,0,0,0-1.93,4.82,4.82,0,0,1,0-1.93,234.52,234.52,0,0,0-21.51,27.5,218.78,218.78,0,0,0-17.09,30.59q-2.12,4.83-4.14,10.23a50.83,50.83,0,0,1-4.93,9.84,2.47,2.47,0,0,1-2.31,1.74,8,8,0,0,1-3-2,26.44,26.44,0,0,1-2.8-2.8,14.76,14.76,0,0,1-4.15-5.69,22.17,22.17,0,0,1-.87-6.85,304.38,304.38,0,0,1,4.92-55,230.2,230.2,0,0,1,16.5-52.68,25.7,25.7,0,0,0,1.16-2.8,12.48,12.48,0,0,1,1.45-2.9,7.5,7.5,0,0,1,2-2,3.57,3.57,0,0,1,2.89-.39,11.56,11.56,0,0,1,4.63,2.61,56,56,0,0,1,5.31,5,34.86,34.86,0,0,1,4.44,5.89,10.84,10.84,0,0,1,1.83,5.21,5.79,5.79,0,0,1-.48,3.09c-.45,1-.94,2.06-1.45,3.09q-4.83,9.25-9.17,18.33T133.61,324q-3.48,9.25-6.18,18.91A161.62,161.62,0,0,0,123.19,363a26.06,26.06,0,0,0-.58,2.9c-.13.9-.26,1.86-.39,2.89.26-.51.51-1,.77-1.45s.52-.93.78-1.44a251.07,251.07,0,0,1,18.62-30.5,297.5,297.5,0,0,1,22.48-27.79,2,2,0,0,1,1.93-.19,9.09,9.09,0,0,1,4.64.48,35.92,35.92,0,0,1,4.05,1.64,23.58,23.58,0,0,1,9.65,7.72,14.85,14.85,0,0,1,2.7,5.79,25.17,25.17,0,0,1,.48,5.89,26.82,26.82,0,0,1-.87,6c-.51,2-1,4-1.54,6.08q-1.74,6.76-3.47,13.51L179,368c-.64,2.58-1.32,5.24-2,8a23.66,23.66,0,0,0-.68,8.2c1.41-.77,2.9-1.6,4.44-2.51a57.41,57.41,0,0,0,18.43-21.23,76.06,76.06,0,0,0,7.62-27.4c0-.52.2-.77.58-.77a4,4,0,0,1,2.42,1.35,3.64,3.64,0,0,1,1.44,2.31,66.8,66.8,0,0,1-3.18,24.9,73.07,73.07,0,0,1-11.29,21.81,53.19,53.19,0,0,1-9,8.78A20.41,20.41,0,0,1,176.26,396Z" transform="translate(-12.56 -262.32)"/><path class="a9446481-0410-43fb-9538-64c41a7f38c8" d="M250.56,387.9a48.18,48.18,0,0,1-11.87,6.75,29.34,29.34,0,0,1-13,2.51A34.92,34.92,0,0,1,213.51,395a23.63,23.63,0,0,1-10-7.14q-9.08-11-7.33-26.63a91.29,91.29,0,0,1,3.18-15.06A102.35,102.35,0,0,1,205.59,330a94.1,94.1,0,0,1,8.88-14.67,40,40,0,0,1,11-10.42q7.34-4.64,14.48-4.05a15.44,15.44,0,0,1,4.92,1.35,24.88,24.88,0,0,1,4.92,2.89,22.91,22.91,0,0,1,4.05,3.86A9.51,9.51,0,0,1,256,313.4a25.76,25.76,0,0,1,3.09,8.69A21.11,21.11,0,0,1,257.7,333a30.43,30.43,0,0,1-6.36,9.75,48.76,48.76,0,0,1-6,4.63,58.25,58.25,0,0,1-7.33,4.15,51.53,51.53,0,0,1-7.91,3,27.7,27.7,0,0,1-7.53,1.16,19.68,19.68,0,0,1-3.38-.29,8.68,8.68,0,0,1-3.18-1.26,79.29,79.29,0,0,0-2.8,12.55,47.8,47.8,0,0,0-.39,9.26,21.54,21.54,0,0,0,1.26,6.28,9,9,0,0,0,2.31,3.57,21,21,0,0,0,10.23,2.89,32.17,32.17,0,0,0,3.38-.19,26.16,26.16,0,0,0,4-.77,30.19,30.19,0,0,0,12.73-6.86,73.57,73.57,0,0,0,11.2-12.06,112.8,112.8,0,0,0,8.68-13.51,79.78,79.78,0,0,0,5.21-11.19c.26-.51.58-.71,1-.58a3.47,3.47,0,0,1,1.25.87,6.84,6.84,0,0,1,1.16,1.54,1.85,1.85,0,0,1,.29,1.45,66.68,66.68,0,0,1-8.88,22.39A70,70,0,0,1,250.56,387.9Zm-4.82-70.64a17.24,17.24,0,0,0-9.07,3.57,45.47,45.47,0,0,0-7.82,7.53,56.41,56.41,0,0,0-6.17,9.17,73.14,73.14,0,0,0-4.15,8.87,29.26,29.26,0,0,0,17-7.81,33.3,33.3,0,0,0,9.65-15.92,19.84,19.84,0,0,0,.58-2.71A9.39,9.39,0,0,0,245.74,317.26Z" transform="translate(-12.56 -262.32)"/><path class="a9446481-0410-43fb-9538-64c41a7f38c8" d="M308.66,393.88a42.24,42.24,0,0,1-2.42,11.1,38.74,38.74,0,0,1-5.5,10.33,28.42,28.42,0,0,1-8.39,7.52,21.48,21.48,0,0,1-11.1,2.9,19.15,19.15,0,0,1-6.37-1.16,22.24,22.24,0,0,1-6.75-5l-.2.19a3.56,3.56,0,0,1-1.16-1.93,4.25,4.25,0,0,1-1-2.31,58,58,0,0,1-1.74-10.13q-.57-6.09-.77-12.36t-.19-11.67c0-3.6.06-6.31.19-8.11a254.35,254.35,0,0,1,7.91-53.07,222.48,222.48,0,0,1,19.69-50q.59-1.16,1.35-2.61a19.63,19.63,0,0,1,1.64-2.6,6.89,6.89,0,0,1,2-1.83,3.89,3.89,0,0,1,2.89-.29,13.8,13.8,0,0,1,6.76,4.72q2.9,3.58,5,6.28a32.29,32.29,0,0,1,2.5,3.76,6.89,6.89,0,0,1,1,4.15,10,10,0,0,1-.87,3,17.64,17.64,0,0,1-1.64,2.8q-7.33,11.77-14.09,23.93A176.24,176.24,0,0,0,285.88,337a9.43,9.43,0,0,1,2.61,2.22c1,1.09,1.93,2.25,2.89,3.47a43,43,0,0,1,2.61,3.67c.77,1.22,1.41,2.22,1.93,3a65.54,65.54,0,0,0,18.24-8.78,35,35,0,0,0,12.64-15.35c.12-.25.41-.35.87-.28a3.73,3.73,0,0,1,1.35.48,5.51,5.51,0,0,1,1.15.87,1.31,1.31,0,0,1,.49.86A24.1,24.1,0,0,1,326.8,337a40.27,40.27,0,0,1-7.53,8.39,49.05,49.05,0,0,1-9.55,6.37,52,52,0,0,1-10.14,4A80.18,80.18,0,0,1,307,374.2,55.48,55.48,0,0,1,308.66,393.88Zm-32.81-14.67q-1,7.53-1.45,15.64A45.37,45.37,0,0,0,276,410.29a17.87,17.87,0,0,0,4-2.61,35,35,0,0,0,3.48-3.38,29,29,0,0,0,5-9.36,44.78,44.78,0,0,0,2.13-10.9,54.71,54.71,0,0,0-.68-12.55,69.06,69.06,0,0,0-3.18-12l-1.16-3.48a20.44,20.44,0,0,1-5.21-1.73q-1.55,6.18-2.8,12.45A118.53,118.53,0,0,0,275.85,379.21Zm5.79-29.14a13.8,13.8,0,0,0,1.54.58,2.87,2.87,0,0,1-.48-1.16,3.11,3.11,0,0,0-.49-1.16Z" transform="translate(-12.56 -262.32)"/><path class="a9446481-0410-43fb-9538-64c41a7f38c8" d="M340.35,315.08v-4.43c2.82-1.7,5.23-3.28,7.21-4.76a28.46,28.46,0,0,0,4.85-4.48,14.73,14.73,0,0,0,2.73-4.71,16.17,16.17,0,0,0,.85-5.37,7.08,7.08,0,0,0-1.08-4.38,3.1,3.1,0,0,0-2.41-1.37,6,6,0,0,0-1.46.24c-.6.15-1.22.33-1.88.51s-1.31.37-1.93.52a6.54,6.54,0,0,1-1.51.24,8.92,8.92,0,0,1-3.63-.76,9.73,9.73,0,0,1-3.06-2.07,10.15,10.15,0,0,1-2.12-3.11,9.47,9.47,0,0,1-.8-4,9.94,9.94,0,0,1,1.08-4.75A10.41,10.41,0,0,1,340,269a12.52,12.52,0,0,1,4-2.07,14.71,14.71,0,0,1,4.48-.71,13.69,13.69,0,0,1,6.08,1.46,17.52,17.52,0,0,1,5.23,4,20.31,20.31,0,0,1,3.67,5.89,18.54,18.54,0,0,1,1.42,7.26,28.45,28.45,0,0,1-5.8,17.24,35.3,35.3,0,0,1-7.58,7.31A45.08,45.08,0,0,1,340.35,315.08Z" transform="translate(-12.56 -262.32)"/><path class="a9446481-0410-43fb-9538-64c41a7f38c8" d="M419.44,390a30.76,30.76,0,0,1-8.69,4.83,26.86,26.86,0,0,1-8.88,1.54,22.41,22.41,0,0,1-11-3,15.23,15.23,0,0,1-7.33-8.59,14,14,0,0,1,.58-9.94,111.06,111.06,0,0,1,4.82-10.13,3.14,3.14,0,0,1,2.61-1.26,12.21,12.21,0,0,1,2.8.1q3.27.78,6.66,1.26t6.85.67q-2.33-4.81-5.21-10.81a110.83,110.83,0,0,1-5.12-12.45,71.68,71.68,0,0,1-3.18-13.12,33.67,33.67,0,0,1,.48-12.74,27.38,27.38,0,0,1,5.79-11.29q4.33-5.21,12.64-8.68a11.3,11.3,0,0,1,5-1,18.8,18.8,0,0,1,7,1.35,25.8,25.8,0,0,1,5.5,2.9,11.17,11.17,0,0,1,2.32,2,11.87,11.87,0,0,1,2.12,3.08,5.91,5.91,0,0,1,.58,3.28,3.85,3.85,0,0,1-2.31,2.8A35.83,35.83,0,0,0,422,320.83a27.35,27.35,0,0,0-3.86,26.93q2.61,6.56,5.12,12.73a40.57,40.57,0,0,1,1.54,3.86,65.13,65.13,0,0,0,17.76-13.22,92.87,92.87,0,0,0,13.51-17.66c.25-.38.51-.58.77-.58q1,0,1.83,1.65a3.24,3.24,0,0,1,.49,2.6,75.55,75.55,0,0,1-13.42,21.23,86.49,86.49,0,0,1-19.2,16.21,24,24,0,0,1-1.93,8.78A17,17,0,0,1,419.44,390Zm-21.81-7.72a5,5,0,0,0-.29,2.13,18.76,18.76,0,0,0,.29,1.93.44.44,0,0,1,.29.09.37.37,0,0,0,.29.1c.77-.39,2-.93,3.57-1.64a39.17,39.17,0,0,0,4.73-2.51,30.84,30.84,0,0,0,4.05-3,4.19,4.19,0,0,0,1.74-2.9v-.87a1.85,1.85,0,0,0-.2-.86q-5.79-.39-11-1.16c-.77,1.41-1.48,2.83-2.12,4.24A17.27,17.27,0,0,0,397.63,382.3Z" transform="translate(-12.56 -262.32)"/><path class="a9446481-0410-43fb-9538-64c41a7f38c8" d="M553.18,398.71a28.91,28.91,0,0,1-10.9,8.1,32.38,32.38,0,0,1-12.45,2.51,34.47,34.47,0,0,1-13.7-2.89A37.08,37.08,0,0,1,504,397.94a44.55,44.55,0,0,1-10.13-15.35,43.84,43.84,0,0,1-3-18,109.91,109.91,0,0,1,5.6-29.44,162.12,162.12,0,0,1,12.16-27.5q3.48-5.79,9.07-13.51A127.39,127.39,0,0,1,530,279.53a85,85,0,0,1,14.19-11.68q7.42-4.82,14.57-4.82a23.74,23.74,0,0,1,13.12,3.86,32,32,0,0,1,9.85,10,44.07,44.07,0,0,1,4.24,9.17,24.9,24.9,0,0,1,1.16,9.75,37.82,37.82,0,0,1-5.6,18.43,39.07,39.07,0,0,1-13.7,13.61A11.33,11.33,0,0,1,565,329a3.32,3.32,0,0,1-1.93.2,10.65,10.65,0,0,1-1.93-.58,24.26,24.26,0,0,1-7.53-3.38,12.14,12.14,0,0,1-5-6.46,26.89,26.89,0,0,0,10.33-4.73,56,56,0,0,0,9.84-9,59.21,59.21,0,0,0,7.62-11A30.84,30.84,0,0,0,580,283.49a4.24,4.24,0,0,0-.19-1.55,2.32,2.32,0,0,0-2.32-.38,50.81,50.81,0,0,0-16.4,8,97.84,97.84,0,0,0-14.86,13.22,120.12,120.12,0,0,0-12.45,15.92,144.77,144.77,0,0,0-9.17,15.92q-3.09,6.38-5.89,13.7a114.45,114.45,0,0,0-4.53,14.87,74.49,74.49,0,0,0-1.93,15.05,43.65,43.65,0,0,0,2.12,14.67c.26.77.51,1.51.77,2.22a6.07,6.07,0,0,0,4.44,3.66,9.06,9.06,0,0,0,3.48-.09,12.45,12.45,0,0,0,5-2.9,30.47,30.47,0,0,0,4.25-4.82,42.94,42.94,0,0,0,3.38-5.6q1.44-2.89,2.41-5.21a72.79,72.79,0,0,0,4.25-13,30.6,30.6,0,0,0,0-13.6c2.18,1.54,4.34,3.08,6.46,4.63s4.21,3.22,6.27,5a41.09,41.09,0,0,1,2.8,3.08,13.84,13.84,0,0,1,3.38,10,28.82,28.82,0,0,1-1.83,12.06A32,32,0,0,1,553.18,398.71Z" transform="translate(-12.56 -262.32)"/><path class="a9446481-0410-43fb-9538-64c41a7f38c8" d="M627.29,391.57a30,30,0,0,1-6.95,3.66,16.64,16.64,0,0,1-7.52,1,17.64,17.64,0,0,1-2.7-.19,14.85,14.85,0,0,1-2.32-.58,15.36,15.36,0,0,1-7.14-2.13,22.89,22.89,0,0,1-5.79-4.82,37.76,37.76,0,0,1-7.53-12.55,35.75,35.75,0,0,1-1.93-14.86,87.94,87.94,0,0,1,2.32-15A97.35,97.35,0,0,1,593,330a88.65,88.65,0,0,1,8-14.77,38.83,38.83,0,0,1,10.43-10.71,27.07,27.07,0,0,1,6.75-3.18,17.91,17.91,0,0,1,7.14-.68,20,20,0,0,1,8.3,1.74,23.37,23.37,0,0,1,7,4.83A39.92,39.92,0,0,1,649,319.38a33.68,33.68,0,0,1,2.8,14.67,74,74,0,0,1-.58,9.27,54.11,54.11,0,0,0,11.68-4,57.73,57.73,0,0,0,10.52-6.47.77.77,0,0,1,1.06.1,2.81,2.81,0,0,1,.68,1.45,10.52,10.52,0,0,1,.19,1.93,1.88,1.88,0,0,1-.39,1.35A44.54,44.54,0,0,1,663.38,347a58.67,58.67,0,0,1-13.89,5.6c-.9,3.35-2,6.88-3.38,10.62a96.44,96.44,0,0,1-4.73,10.9,63.15,63.15,0,0,1-6.27,9.94A34.41,34.41,0,0,1,627.29,391.57ZM602,380.37a6.81,6.81,0,0,0,2,.1,17.85,17.85,0,0,0,2-.29,21.74,21.74,0,0,0,7.72-3.86,34.48,34.48,0,0,0,6.28-6.37,54.79,54.79,0,0,0,4.92-7.72q2.12-4.05,3.66-7.72l.2-.39a31.06,31.06,0,0,1-12-4.14,19.93,19.93,0,0,1-7.91-9.56,9.93,9.93,0,0,1-.58,1.35,78.82,78.82,0,0,0-4.44,12,102.89,102.89,0,0,0-2.7,12.54c-.26,2.19-.48,4.61-.68,7.24A11.39,11.39,0,0,0,602,380.37Zm14.67-41.69a22.42,22.42,0,0,0,7.43,3.57,63.78,63.78,0,0,0,8.2,1.84,79.94,79.94,0,0,0,2.7-14.48,47.88,47.88,0,0,0,.39-6.37,13.62,13.62,0,0,0-1.35-6.17,15.56,15.56,0,0,0-6.47,1.35,25.4,25.4,0,0,0-5.59,3.47,30.46,30.46,0,0,0-4.73,4.83q-2.13,2.7-3.86,5.4a5.82,5.82,0,0,1-.2,1.74,2.65,2.65,0,0,0,1.07,2.7C615.23,337.46,616,338.17,616.68,338.68Z" transform="translate(-12.56 -262.32)"/><path class="a9446481-0410-43fb-9538-64c41a7f38c8" d="M785,395.43a8.13,8.13,0,0,1-3.18,1,8.36,8.36,0,0,1-3.19-.19,20.28,20.28,0,0,1-7.33-3.09,17.23,17.23,0,0,1-5.6-6.18,22.39,22.39,0,0,1-2.89-9.45,44.9,44.9,0,0,1,.38-10.14,81.46,81.46,0,0,1,2.22-10.13q1.46-5,2.61-9.65,1.35-5.6,2.6-11.29t2.8-11.29q.78-2.5,1.35-4.92a31.22,31.22,0,0,0,.78-5.11,7,7,0,0,0,.09-1.93c-.06-.65-.09-1.29-.09-1.93a246.68,246.68,0,0,0-21.72,29.33,225.12,225.12,0,0,0-16.88,32.23q-2.13,4.83-3.86,10a52.66,52.66,0,0,1-4.44,9.84,5.4,5.4,0,0,1-1.16,1.93,1.73,1.73,0,0,1-1.55.58,7.39,7.39,0,0,1-5,.19,20.3,20.3,0,0,1-7.34-3.08A17.37,17.37,0,0,1,708,386a22.45,22.45,0,0,1-2.9-9.46,43.24,43.24,0,0,1,.39-10,78.55,78.55,0,0,1,2.22-10q1.44-5,2.6-9.65,1.35-5.6,2.61-11.29t2.8-11.29q.76-2.7,1.35-5.11a32.47,32.47,0,0,0,.77-5.12,6,6,0,0,0,.1-1.83,15.36,15.36,0,0,1-.1-1.84,248,248,0,0,0-21.62,29.15,232.78,232.78,0,0,0-17,32.23q-2.13,5-4.05,10.52a59.14,59.14,0,0,1-4.64,10.13c-.38,1.42-1.15,2.06-2.31,1.93a8,8,0,0,1-2.51-1.16,32.23,32.23,0,0,1-6.08-5,14.35,14.35,0,0,1-1.83-2.31,10.91,10.91,0,0,1-.78-4.44,154.5,154.5,0,0,1,2.13-38.7,117.75,117.75,0,0,1,13.31-36.38q1-1.74,2.32-4c.9-1.47,2.44-2,4.63-1.44a12.73,12.73,0,0,1,4.06,1.83c1.79,1.09,3.63,2.35,5.5,3.76a36.4,36.4,0,0,1,4.82,4.35c1.35,1.48,2,2.79,2,3.95a3.85,3.85,0,0,1-.39,2.42c-.39.7-.77,1.38-1.16,2A206.84,206.84,0,0,0,681,341.29a89.43,89.43,0,0,0-8.5,24.41,3,3,0,0,0,.49-1.15,2.82,2.82,0,0,1,.48-1.16,247.29,247.29,0,0,1,18.43-32.23,297.79,297.79,0,0,1,22.68-29.34,1.34,1.34,0,0,1,1.35-.38,8.73,8.73,0,0,1,4.92.29,28.66,28.66,0,0,1,4.34,1.64,26,26,0,0,1,9.65,8.29,14.54,14.54,0,0,1,2.7,6,29.17,29.17,0,0,1,.49,6.27,31.68,31.68,0,0,1-.87,6.37c-.52,2.12-1,4.28-1.55,6.46q-1.72,7.35-3.47,14.38t-3.47,14.19c-.39,1.42-.74,2.8-1.07,4.15s-.61,2.73-.86,4.15a266.23,266.23,0,0,1,20.07-37.25,287.42,287.42,0,0,1,25.47-33.78,1.07,1.07,0,0,1,1.35-.19,9,9,0,0,1,5,.29,32.2,32.2,0,0,1,4.25,1.64,26.43,26.43,0,0,1,9.65,8.3,14.69,14.69,0,0,1,2.7,6,28.58,28.58,0,0,1,.48,6.28,30.87,30.87,0,0,1-.86,6.36c-.52,2.13-1,4.28-1.55,6.47q-1.74,7.33-3.47,14.38t-3.48,14.18c-.64,2.58-1.32,5.28-2,8.11a24.35,24.35,0,0,0-.68,8.3,51.29,51.29,0,0,0,13.32-9.75,61.35,61.35,0,0,0,9.84-13.12,79.26,79.26,0,0,0,6.56-15.35,106.16,106.16,0,0,0,3.67-16,.69.69,0,0,1,.77-.78c.64,0,1.42.55,2.32,1.64a4.8,4.8,0,0,1,1.35,2.61A83.53,83.53,0,0,1,817,359.05a72.29,72.29,0,0,1-12.55,22.87,55,55,0,0,1-8.87,8.78A21.91,21.91,0,0,1,785,395.43Z" transform="translate(-12.56 -262.32)"/><path class="a9446481-0410-43fb-9538-64c41a7f38c8" d="M821.45,421.87c0,.64,0,1.57.09,2.8a25.07,25.07,0,0,1-.09,3.76,10.54,10.54,0,0,1-.87,3.38,1.84,1.84,0,0,1-2,1.25,8.16,8.16,0,0,1-3-2c-1.35-1.23-2.35-2.16-3-2.8q-3.29-3.28-4.05-5.7a23.34,23.34,0,0,1-.78-6.85,303.37,303.37,0,0,1,4.93-55A230.12,230.12,0,0,1,829.17,308a26.91,26.91,0,0,0,1.16-2.8,12.08,12.08,0,0,1,1.44-2.9,7.64,7.64,0,0,1,2-2,3.66,3.66,0,0,1,2.89-.39,13.27,13.27,0,0,1,4.54,2.51,39.28,39.28,0,0,1,5.4,5,39.71,39.71,0,0,1,4.44,5.89,10.34,10.34,0,0,1,1.84,5.11,9.39,9.39,0,0,1-.58,3.28,17.17,17.17,0,0,1-1.55,3.09q-1.54,2.9-3.08,5.88c-1,2-2.06,4-3.09,6.08q2.89-3.66,7.62-9a126.59,126.59,0,0,1,10.23-10.23,86.9,86.9,0,0,1,10.9-8.39q5.4-3.48,9.65-3.48a9.19,9.19,0,0,1,6.28,2.51,16.57,16.57,0,0,1,4.34,6.56A25,25,0,0,1,895,326q-.59,6-1.54,11.38a76.72,76.72,0,0,1-5.79,18.05A91.93,91.93,0,0,1,878,371.69a29.73,29.73,0,0,0,5.4-1.74,53.66,53.66,0,0,0,18.14-12.06,44.37,44.37,0,0,0,11-18.82.63.63,0,0,1,.78-.48,3.08,3.08,0,0,1,1.25.58,4.91,4.91,0,0,1,1.16,1.16,2.08,2.08,0,0,1,.48,1.06,38.71,38.71,0,0,1-5.6,16.69,47.13,47.13,0,0,1-12.73,13.8,48.19,48.19,0,0,1-9.08,5.4,23,23,0,0,1-10.61,2.13,20.67,20.67,0,0,1-5.79-1,49.65,49.65,0,0,1-9.27,7.63,19.48,19.48,0,0,1-10.61,3.18,16.37,16.37,0,0,1-11-4,17,17,0,0,1-5.79-10.13,5.8,5.8,0,0,1,0-2.12,6.15,6.15,0,0,1,.68-2,2.78,2.78,0,0,1,1.35-1.25A2.75,2.75,0,0,1,840,370a12.77,12.77,0,0,0,5.79,1.35,14.72,14.72,0,0,0,7.81-2.31,35.87,35.87,0,0,0,6.95-5.6,52.8,52.8,0,0,0,5.79-7.14q2.61-3.86,4.54-6.95A82.74,82.74,0,0,0,882.05,320c-.52.26-1,.49-1.45.68s-.93.42-1.45.67A76.55,76.55,0,0,0,855,341a125,125,0,0,0-13.51,19.78q-5.79,10.53-12,20.75-.76,1.35-2.31.39-2.52,9.84-4.15,19.88A123.4,123.4,0,0,0,821.45,421.87Z" transform="translate(-12.56 -262.32)"/><path class="a9446481-0410-43fb-9538-64c41a7f38c8" d="M945.35,372.85q-1.74,2.5-4.92,6.56t-6.95,8a49.82,49.82,0,0,1-7.81,6.75,13.49,13.49,0,0,1-7.53,2.8,11,11,0,0,1-7.82-2.8,17.87,17.87,0,0,1-4.53-6.95,39,39,0,0,1-2.13-8.78,68.81,68.81,0,0,1-.58-8.3,74.43,74.43,0,0,1,2.51-20.55,90.26,90.26,0,0,1,7.92-19.78,75.32,75.32,0,0,1,4.92-8.11,46.56,46.56,0,0,1,6.37-7.43,30.35,30.35,0,0,1,7.81-5.4,20.37,20.37,0,0,1,14.09-1.35,17.63,17.63,0,0,1,4.92,2,15.88,15.88,0,0,1,3.86,3.28,7.79,7.79,0,0,1,1.84,4.63c.38-.89.8-1.76,1.25-2.6s.93-1.7,1.45-2.61c.26-.51.51-1.06.77-1.64a17.4,17.4,0,0,1,1-1.83,1.64,1.64,0,0,0,.19-.58.55.55,0,0,1,.19-.39c.39-1,1-1.41,1.74-1.15a6.39,6.39,0,0,1,2.89-.58,15.37,15.37,0,0,1,7.24,2.22q3.38,2,5.89,3.57a23.58,23.58,0,0,1,3,2.22,4.42,4.42,0,0,1,1.64,2.8,3.25,3.25,0,0,1-.39,2.12,11.24,11.24,0,0,1-1.35,2.12q-5.4,8.49-9.55,16.12a117.45,117.45,0,0,0-7,15.44,95.6,95.6,0,0,0-4.44,16.5,109.38,109.38,0,0,0-1.55,19.11,22,22,0,0,0,5.6-2.22,34.38,34.38,0,0,0,4.82-3.38,65,65,0,0,0,17.86-21.33,68.54,68.54,0,0,0,7.81-26.54c0-.51.32-.77,1-.77a4.08,4.08,0,0,1,2.22.87,3.17,3.17,0,0,1,1.45,1.83,60,60,0,0,1-3,22.88A74.12,74.12,0,0,1,986.85,381a64.08,64.08,0,0,1-8.88,9.36,27,27,0,0,1-11,5.89,17.5,17.5,0,0,1-7.72.19,1.55,1.55,0,0,1-1,.19,5.38,5.38,0,0,1-3.09-1,31.44,31.44,0,0,0-3.08-1.54,11.56,11.56,0,0,1-3.77-2.42,8.06,8.06,0,0,1-2-4.15,3,3,0,0,1-.2-2.31q-.39-3.09-.48-6.18T945.35,372.85ZM924.7,351.42A85,85,0,0,0,920.46,367a91.22,91.22,0,0,0-1.36,15.73,46.71,46.71,0,0,0,8.69-6.95,86.9,86.9,0,0,0,8-9.26,114.73,114.73,0,0,0,6.85-10.23,88.81,88.81,0,0,0,5-9.65,116.22,116.22,0,0,1,7.52-24.71,3.91,3.91,0,0,1-1.54.2A16.42,16.42,0,0,0,943,324.4a31.23,31.23,0,0,0-8.21,7.53,52.55,52.55,0,0,0-6.08,10Q926.25,347.37,924.7,351.42Z" transform="translate(-12.56 -262.32)"/><path class="a9446481-0410-43fb-9538-64c41a7f38c8" d="M1018.69,390a30.76,30.76,0,0,1-8.69,4.83,26.85,26.85,0,0,1-8.87,1.54,22.38,22.38,0,0,1-11-3,15.24,15.24,0,0,1-7.34-8.59,14,14,0,0,1,.58-9.94,111.17,111.17,0,0,1,4.83-10.13,3.12,3.12,0,0,1,2.6-1.26,12.21,12.21,0,0,1,2.8.1c2.19.52,4.4.94,6.66,1.26s4.53.54,6.85.67q-2.31-4.81-5.21-10.81a110.83,110.83,0,0,1-5.12-12.45,71.68,71.68,0,0,1-3.18-13.12,33.67,33.67,0,0,1,.48-12.74,27.62,27.62,0,0,1,5.79-11.29q4.35-5.21,12.64-8.68a11.3,11.3,0,0,1,5-1,18.89,18.89,0,0,1,7,1.35,26,26,0,0,1,5.5,2.9,11.43,11.43,0,0,1,2.31,2,12.16,12.16,0,0,1,2.13,3.08,6,6,0,0,1,.57,3.28,3.85,3.85,0,0,1-2.31,2.8,36,36,0,0,0-11.49,9.94,27.35,27.35,0,0,0-3.86,26.93q2.61,6.56,5.12,12.73a40.57,40.57,0,0,1,1.54,3.86,64.83,64.83,0,0,0,17.76-13.22,92.46,92.46,0,0,0,13.51-17.66c.26-.38.51-.58.77-.58.64,0,1.26.55,1.83,1.65a3.24,3.24,0,0,1,.49,2.6A75.33,75.33,0,0,1,1045,358.37a86,86,0,0,1-19.2,16.21,24,24,0,0,1-1.93,8.78A17,17,0,0,1,1018.69,390Zm-21.81-7.72a5,5,0,0,0-.29,2.13,18.76,18.76,0,0,0,.29,1.93.42.42,0,0,1,.29.09.37.37,0,0,0,.29.1c.77-.39,2-.93,3.57-1.64a38.43,38.43,0,0,0,4.73-2.51,30.84,30.84,0,0,0,4-3,4.19,4.19,0,0,0,1.74-2.9v-.87a2,2,0,0,0-.19-.86q-5.79-.39-11-1.16c-.77,1.41-1.48,2.83-2.12,4.24A18.09,18.09,0,0,0,996.88,382.3Z" transform="translate(-12.56 -262.32)"/><path class="a9446481-0410-43fb-9538-64c41a7f38c8" d="M1063.08,390a30.76,30.76,0,0,1-8.69,4.83,26.85,26.85,0,0,1-8.87,1.54,22.44,22.44,0,0,1-11-3,15.26,15.26,0,0,1-7.33-8.59,14,14,0,0,1,.58-9.94,111.06,111.06,0,0,1,4.82-10.13,3.15,3.15,0,0,1,2.61-1.26,12.21,12.21,0,0,1,2.8.1c2.19.52,4.4.94,6.66,1.26s4.53.54,6.85.67q-2.31-4.81-5.21-10.81a110.83,110.83,0,0,1-5.12-12.45,71.68,71.68,0,0,1-3.18-13.12,33.67,33.67,0,0,1,.48-12.74,27.62,27.62,0,0,1,5.79-11.29q4.35-5.21,12.64-8.68a11.3,11.3,0,0,1,5-1,18.89,18.89,0,0,1,7,1.35,26.3,26.3,0,0,1,5.5,2.9,11.43,11.43,0,0,1,2.31,2,12.16,12.16,0,0,1,2.13,3.08,6,6,0,0,1,.57,3.28,3.85,3.85,0,0,1-2.31,2.8,36,36,0,0,0-11.49,9.94,27.35,27.35,0,0,0-3.86,26.93q2.61,6.56,5.12,12.73a40.57,40.57,0,0,1,1.54,3.86,65,65,0,0,0,17.76-13.22,92.46,92.46,0,0,0,13.51-17.66c.25-.38.51-.58.77-.58.64,0,1.26.55,1.83,1.65a3.24,3.24,0,0,1,.49,2.6,75.33,75.33,0,0,1-13.42,21.23,86.27,86.27,0,0,1-19.2,16.21,24,24,0,0,1-1.93,8.78A17,17,0,0,1,1063.08,390Zm-21.81-7.72a5,5,0,0,0-.29,2.13,18.76,18.76,0,0,0,.29,1.93.42.42,0,0,1,.29.09.37.37,0,0,0,.29.1c.77-.39,2-.93,3.57-1.64a38.43,38.43,0,0,0,4.73-2.51,30.84,30.84,0,0,0,4-3,4.19,4.19,0,0,0,1.74-2.9v-.87a2,2,0,0,0-.19-.86c-3.87-.26-7.53-.65-11-1.16-.77,1.41-1.48,2.83-2.12,4.24A18.09,18.09,0,0,0,1041.27,382.3Z" transform="translate(-12.56 -262.32)"/></svg>