<svg id="a6443219-3452-4da3-bf2f-817f52338a2d" data-name="Calque 1" xmlns="http://www.w3.org/2000/svg" viewBox="0 0 79.66 96.42"><defs><style>.f8548f1b-f849-4cea-a092-b65a6fb4a084{fill:#1d1d1b;}</style></defs><title>e</title><path class="f8548f1b-f849-4cea-a092-b65a6fb4a084" d="M250.56,387.9a48.18,48.18,0,0,1-11.87,6.75,29.34,29.34,0,0,1-13,2.51A34.92,34.92,0,0,1,213.51,395a23.63,23.63,0,0,1-10-7.14q-9.08-11-7.33-26.63a91.29,91.29,0,0,1,3.18-15.06A102.35,102.35,0,0,1,205.59,330a94.1,94.1,0,0,1,8.88-14.67,40,40,0,0,1,11-10.42q7.34-4.64,14.48-4.05a15.44,15.44,0,0,1,4.92,1.35,24.88,24.88,0,0,1,4.92,2.89,22.91,22.91,0,0,1,4.05,3.86A9.51,9.51,0,0,1,256,313.4a25.76,25.76,0,0,1,3.09,8.69A21.11,21.11,0,0,1,257.7,333a30.43,30.43,0,0,1-6.36,9.75,48.76,48.76,0,0,1-6,4.63,58.25,58.25,0,0,1-7.33,4.15,51.53,51.53,0,0,1-7.91,3,27.7,27.7,0,0,1-7.53,1.16,19.68,19.68,0,0,1-3.38-.29,8.68,8.68,0,0,1-3.18-1.26,79.29,79.29,0,0,0-2.8,12.55,47.8,47.8,0,0,0-.39,9.26,21.54,21.54,0,0,0,1.26,6.28,9,9,0,0,0,2.31,3.57,21,21,0,0,0,10.23,2.89,32.17,32.17,0,0,0,3.38-.19,26.16,26.16,0,0,0,4-.77,30.19,30.19,0,0,0,12.73-6.86,73.57,73.57,0,0,0,11.2-12.06,112.8,112.8,0,0,0,8.68-13.51,79.78,79.78,0,0,0,5.21-11.19c.26-.51.58-.71,1-.58a3.47,3.47,0,0,1,1.25.87,6.84,6.84,0,0,1,1.16,1.54,1.85,1.85,0,0,1,.29,1.45,66.68,66.68,0,0,1-8.88,22.39A70,70,0,0,1,250.56,387.9Zm-4.82-70.64a17.24,17.24,0,0,0-9.07,3.57,45.47,45.47,0,0,0-7.82,7.53,56.41,56.41,0,0,0-6.17,9.17,73.14,73.14,0,0,0-4.15,8.87,29.26,29.26,0,0,0,17-7.81,33.3,33.3,0,0,0,9.65-15.92,19.84,19.84,0,0,0,.58-2.71A9.39,9.39,0,0,0,245.74,317.26Z" transform="translate(-195.86 -300.79)"/></svg>