<?xml version="1.0" encoding="utf-8"?>
<!-- Generator: Adobe Illustrator 24.0.1, SVG Export Plug-In . SVG Version: 6.00 Build 0)  -->
<svg version="1.1" id="Calque_1" xmlns="http://www.w3.org/2000/svg" xmlns:xlink="http://www.w3.org/1999/xlink" x="0px" y="0px"
	 viewBox="0 0 1116 841.89" style="enable-background:new 0 0 1116 841.89;" xml:space="preserve">
<path d="M308.66,393.88c-0.26,3.6-1.06,7.3-2.41,11.1c-1.35,3.79-3.18,7.24-5.5,10.33c-2.32,3.09-5.11,5.6-8.4,7.53
	c-3.28,1.93-6.98,2.89-11.1,2.89c-2.06,0-4.18-0.38-6.37-1.16c-0.65-0.26-1.64-0.84-2.99-1.74c-1.35-0.9-2.61-2-3.76-3.28
	l-0.19,0.19c-0.52-0.39-0.9-1.03-1.16-1.93c-0.65-0.9-0.96-1.67-0.96-2.32c-0.77-2.7-1.35-6.08-1.74-10.13
	c-0.39-4.05-0.65-8.17-0.77-12.35c-0.13-4.18-0.19-8.07-0.19-11.68c0-3.6,0.06-6.3,0.19-8.11c0.77-18.01,3.41-35.71,7.91-53.07
	c4.5-17.37,11.06-34.03,19.69-49.99c0.39-0.77,0.84-1.64,1.35-2.61c0.51-0.97,1.06-1.83,1.64-2.61c0.58-0.77,1.25-1.38,2.03-1.83
	c0.77-0.45,1.74-0.55,2.9-0.29c2.57,0.77,4.82,2.35,6.76,4.73c1.93,2.38,3.6,4.47,5.02,6.27c0.9,1.16,1.74,2.41,2.51,3.76
	c0.77,1.35,1.09,2.74,0.96,4.15c-0.13,1.03-0.42,2.03-0.87,2.99c-0.45,0.96-1,1.9-1.64,2.8c-4.89,7.85-9.59,15.83-14.09,23.93
	c-4.51,8.11-8.37,16.6-11.58,25.48c0.77,0.39,1.64,1.13,2.61,2.22c0.96,1.09,1.93,2.25,2.9,3.47c0.96,1.22,1.83,2.45,2.61,3.67
	c0.77,1.22,1.41,2.22,1.93,2.99c6.43-1.93,12.51-4.85,18.24-8.78c5.72-3.92,9.94-9.04,12.64-15.34c0.13-0.26,0.42-0.35,0.87-0.29
	c0.45,0.07,0.9,0.23,1.35,0.48c0.45,0.26,0.83,0.55,1.16,0.87c0.32,0.32,0.48,0.61,0.48,0.87c-0.52,3.47-1.8,6.75-3.86,9.84
	c-2.06,3.09-4.57,5.89-7.53,8.4c-2.96,2.51-6.15,4.63-9.55,6.37c-3.41,1.74-6.79,3.06-10.13,3.96c3.21,5.79,5.69,11.97,7.43,18.53
	C308.75,380.76,309.3,387.32,308.66,393.88z M275.85,379.21c-0.65,5.02-1.13,10.23-1.45,15.63c-0.32,5.4,0.22,10.55,1.64,15.44
	c1.41-0.65,2.77-1.51,4.05-2.61c1.28-1.09,2.44-2.22,3.47-3.38c2.19-2.7,3.86-5.82,5.02-9.36c1.16-3.54,1.86-7.17,2.12-10.9
	c0.26-4.25,0.03-8.43-0.68-12.54c-0.71-4.12-1.77-8.11-3.18-11.97l-1.16-3.47c-1.93-0.39-3.67-0.96-5.21-1.74
	c-1.03,4.12-1.96,8.27-2.8,12.45C276.84,370.95,276.23,375.1,275.85,379.21z M281.64,350.07c0.26,0.13,0.77,0.32,1.54,0.58
	c-0.26-0.39-0.42-0.77-0.48-1.16c-0.07-0.39-0.23-0.77-0.48-1.16L281.64,350.07z"/>
</svg>
