<svg id="ae667fc6-1ec4-45fe-bf1c-a8b13780b88f" data-name="Calque 1" xmlns="http://www.w3.org/2000/svg" viewBox="0 0 103.96 134.22"><defs><style>.b5d56703-5b59-4a3b-8bad-13cf6b3bcaf7{fill:#1d1d1b;}</style></defs><title>h</title><path class="b5d56703-5b59-4a3b-8bad-13cf6b3bcaf7" d="M176.26,396a7.58,7.58,0,0,1-5,.19,17.85,17.85,0,0,1-7.33-2.9,18.41,18.41,0,0,1-5.6-5.79,20.69,20.69,0,0,1-2.89-9,39,39,0,0,1,.38-9.46,77.7,77.7,0,0,1,2.22-9.55q1.46-4.83,2.61-9.07,1.35-5.4,2.6-10.71T166,329c.51-1.54,1-3.08,1.35-4.63a28.69,28.69,0,0,0,.77-4.82,4.82,4.82,0,0,0,0-1.93,4.82,4.82,0,0,1,0-1.93,234.52,234.52,0,0,0-21.51,27.5,218.78,218.78,0,0,0-17.09,30.59q-2.12,4.83-4.14,10.23a50.83,50.83,0,0,1-4.93,9.84,2.47,2.47,0,0,1-2.31,1.74,8,8,0,0,1-3-2,26.44,26.44,0,0,1-2.8-2.8,14.76,14.76,0,0,1-4.15-5.69,22.17,22.17,0,0,1-.87-6.85,304.38,304.38,0,0,1,4.92-55,230.2,230.2,0,0,1,16.5-52.68,25.7,25.7,0,0,0,1.16-2.8,12.48,12.48,0,0,1,1.45-2.9,7.5,7.5,0,0,1,2-2,3.57,3.57,0,0,1,2.89-.39,11.56,11.56,0,0,1,4.63,2.61,56,56,0,0,1,5.31,5,34.86,34.86,0,0,1,4.44,5.89,10.84,10.84,0,0,1,1.83,5.21,5.79,5.79,0,0,1-.48,3.09c-.45,1-.94,2.06-1.45,3.09q-4.83,9.25-9.17,18.33T133.61,324q-3.48,9.25-6.18,18.91A161.62,161.62,0,0,0,123.19,363a26.06,26.06,0,0,0-.58,2.9c-.13.9-.26,1.86-.39,2.89.26-.51.51-1,.77-1.45s.52-.93.78-1.44a251.07,251.07,0,0,1,18.62-30.5,297.5,297.5,0,0,1,22.48-27.79,2,2,0,0,1,1.93-.19,9.09,9.09,0,0,1,4.64.48,35.92,35.92,0,0,1,4.05,1.64,23.58,23.58,0,0,1,9.65,7.72,14.85,14.85,0,0,1,2.7,5.79,25.17,25.17,0,0,1,.48,5.89,26.82,26.82,0,0,1-.87,6c-.51,2-1,4-1.54,6.08q-1.74,6.76-3.47,13.51L179,368c-.64,2.58-1.32,5.24-2,8a23.66,23.66,0,0,0-.68,8.2c1.41-.77,2.9-1.6,4.44-2.51a57.41,57.41,0,0,0,18.43-21.23,76.06,76.06,0,0,0,7.62-27.4c0-.52.2-.77.58-.77a4,4,0,0,1,2.42,1.35,3.64,3.64,0,0,1,1.44,2.31,66.8,66.8,0,0,1-3.18,24.9,73.07,73.07,0,0,1-11.29,21.81,53.19,53.19,0,0,1-9,8.78A20.41,20.41,0,0,1,176.26,396Z" transform="translate(-107.36 -262.32)"/></svg>