<?xml version="1.0" encoding="UTF-8" standalone="no"?>
<svg
   xmlns:dc="http://purl.org/dc/elements/1.1/"
   xmlns:cc="http://creativecommons.org/ns#"
   xmlns:rdf="http://www.w3.org/1999/02/22-rdf-syntax-ns#"
   xmlns:svg="http://www.w3.org/2000/svg"
   xmlns="http://www.w3.org/2000/svg"
   viewBox="0 0 1488 1122.52"
   height="1122.52"
   width="1488"
   xml:space="preserve"
   id="svg2"
   version="1.1"><metadata
     id="metadata8"><rdf:RDF><cc:Work
         rdf:about=""><dc:format>image/svg+xml</dc:format><dc:type
           rdf:resource="http://purl.org/dc/dcmitype/StillImage" /></cc:Work></rdf:RDF></metadata><defs
     id="defs6"><clipPath
       id="clipPath18"
       clipPathUnits="userSpaceOnUse"><path
         id="path16"
         d="M 0,841.89 H 1116 V 0 H 0 Z" /></clipPath></defs><g
     transform="matrix(1.3333333,0,0,-1.3333333,0,1122.52)"
     id="g10"><g
       id="g12"><g
         clip-path="url(#clipPath18)"
         id="g14"><g
           transform="translate(74.9375,443.1827)"
           id="g20"><path
             id="path22"
             style="fill:#231f20;fill-opacity:1;fill-rule:nonzero;stroke:none"
             d="m 0,0 c -3.218,-3.73 -6.852,-6.433 -10.904,-8.106 -4.054,-1.671 -8.203,-2.509 -12.449,-2.509 -4.632,0 -9.2,0.965 -13.703,2.895 -4.505,1.93 -8.558,4.762 -12.159,8.492 -4.505,4.502 -7.883,9.617 -10.132,15.343 -2.253,5.724 -3.248,11.74 -2.992,18.046 0.513,10.036 2.38,19.845 5.597,29.432 3.215,9.584 7.268,18.751 12.159,27.502 2.316,3.861 5.338,8.363 9.071,13.51 3.731,5.145 7.847,10.003 12.352,14.572 4.502,4.565 9.231,8.459 14.185,11.676 4.952,3.215 9.81,4.825 14.572,4.825 4.758,0 9.134,-1.287 13.124,-3.86 3.987,-2.575 7.268,-5.92 9.843,-10.036 1.8,-2.961 3.215,-6.016 4.246,-9.167 1.028,-3.155 1.414,-6.402 1.158,-9.747 C 33.708,96.306 31.845,90.161 28.371,84.437 24.897,78.71 20.328,74.175 14.668,70.831 13.766,70.315 12.801,69.929 11.773,69.672 11.127,69.413 10.485,69.35 9.843,69.479 c -0.645,0.127 -1.288,0.32 -1.93,0.58 -2.575,0.642 -5.084,1.767 -7.527,3.377 -2.446,1.607 -4.119,3.764 -5.018,6.465 3.344,0.643 6.785,2.22 10.325,4.729 3.538,2.509 6.819,5.5 9.844,8.974 3.021,3.475 5.563,7.141 7.623,11.001 2.057,3.86 3.281,7.397 3.667,10.615 0,0.772 -0.066,1.285 -0.193,1.544 -0.516,0.513 -1.288,0.643 -2.316,0.386 -5.663,-1.544 -11.13,-4.215 -16.405,-8.009 -5.277,-3.797 -10.229,-8.203 -14.861,-13.221 -4.632,-5.018 -8.781,-10.325 -12.448,-15.922 -3.667,-5.597 -6.725,-10.905 -9.168,-15.922 -2.06,-4.246 -4.022,-8.815 -5.886,-13.703 -1.867,-4.892 -3.378,-9.843 -4.536,-14.861 -1.158,-5.018 -1.803,-10.036 -1.93,-15.054 -0.129,-5.018 0.579,-9.91 2.123,-14.668 0.256,-0.772 0.513,-1.514 0.772,-2.22 0.256,-0.708 0.706,-1.384 1.351,-2.026 0.899,-0.899 1.93,-1.448 3.088,-1.641 1.158,-0.193 2.316,-0.159 3.474,0.097 1.8,0.516 3.474,1.48 5.018,2.895 1.544,1.414 2.959,3.022 4.246,4.825 1.285,1.8 2.413,3.667 3.378,5.597 0.965,1.93 1.767,3.667 2.412,5.211 1.801,4.116 3.215,8.458 4.246,13.027 1.028,4.566 1.028,9.101 0,13.607 2.186,-1.544 4.343,-3.088 6.466,-4.632 2.123,-1.544 4.213,-3.218 6.272,-5.018 C 2.958,34.48 3.89,33.452 4.729,32.424 5.564,31.392 6.303,30.234 6.948,28.95 7.72,26.89 8.106,24.704 8.106,22.388 8.362,18.269 7.75,14.249 6.272,10.325 4.792,6.399 2.702,2.958 0,0" /></g><g
           transform="translate(176.2607,445.8844)"
           id="g24"><path
             id="path26"
             style="fill:#231f20;fill-opacity:1;fill-rule:nonzero;stroke:none"
             d="m 0,0 c -1.803,-0.645 -3.474,-0.708 -5.018,-0.193 -2.575,0.386 -5.018,1.351 -7.334,2.895 -2.316,1.544 -4.183,3.474 -5.597,5.79 -1.674,2.829 -2.639,5.82 -2.895,8.975 -0.26,3.151 -0.13,6.302 0.386,9.456 0.513,3.152 1.254,6.336 2.22,9.554 0.965,3.214 1.833,6.239 2.605,9.071 0.899,3.6 1.767,7.171 2.606,10.711 0.835,3.538 1.767,7.108 2.798,10.712 0.513,1.544 0.965,3.088 1.351,4.632 0.386,1.544 0.642,3.151 0.772,4.825 0.127,0.642 0.127,1.284 0,1.93 -0.13,0.642 -0.13,1.285 0,1.93 -7.85,-8.622 -15.024,-17.789 -21.519,-27.502 -6.499,-9.717 -12.192,-19.912 -17.081,-30.591 -1.417,-3.217 -2.798,-6.628 -4.149,-10.229 -1.352,-3.604 -2.992,-6.884 -4.922,-9.843 -0.515,-1.158 -1.287,-1.737 -2.316,-1.737 -0.645,0.127 -1.64,0.802 -2.991,2.027 -1.351,1.221 -2.286,2.153 -2.799,2.798 -2.189,2.057 -3.57,3.956 -4.149,5.694 -0.579,1.737 -0.869,4.019 -0.869,6.851 0,18.785 1.641,37.119 4.922,55.005 3.281,17.883 8.781,35.445 16.501,52.689 0.386,0.772 0.772,1.703 1.158,2.798 0.386,1.092 0.869,2.057 1.447,2.895 0.58,0.836 1.255,1.511 2.027,2.026 0.772,0.513 1.737,0.643 2.895,0.387 1.285,-0.26 2.829,-1.128 4.632,-2.606 1.8,-1.481 3.57,-3.154 5.308,-5.018 1.737,-1.867 3.214,-3.83 4.439,-5.887 1.221,-2.059 1.833,-3.796 1.833,-5.211 0.127,-1.031 -0.033,-2.059 -0.483,-3.087 -0.452,-1.032 -0.934,-2.06 -1.447,-3.088 -3.218,-6.176 -6.272,-12.289 -9.167,-18.335 -2.895,-6.05 -5.501,-12.159 -7.817,-18.335 -2.316,-6.176 -4.375,-12.482 -6.176,-18.914 -1.803,-6.435 -3.217,-13.124 -4.246,-20.072 -0.259,-1.031 -0.452,-1.996 -0.579,-2.895 -0.13,-0.901 -0.259,-1.867 -0.386,-2.895 0.256,0.513 0.513,0.995 0.772,1.448 0.256,0.449 0.513,0.931 0.772,1.447 5.531,10.678 11.74,20.844 18.624,30.494 6.882,9.65 14.379,18.914 22.485,27.792 0.512,0.386 1.158,0.449 1.93,0.193 1.415,0.256 2.958,0.096 4.632,-0.483 1.671,-0.579 3.022,-1.127 4.053,-1.64 3.86,-1.674 7.075,-4.246 9.65,-7.72 1.414,-1.93 2.316,-3.86 2.702,-5.79 0.386,-1.93 0.545,-3.893 0.483,-5.887 C 11.996,65.071 11.707,63.078 11.194,61.084 10.678,59.088 10.163,57.062 9.65,55.005 8.492,50.5 7.334,45.997 6.176,41.495 5.018,36.99 3.86,32.487 2.702,27.985 2.057,25.41 1.381,22.741 0.675,19.976 -0.033,17.207 -0.259,14.475 0,11.773 c 1.414,0.772 2.895,1.607 4.439,2.509 8.106,5.79 14.248,12.864 18.431,21.23 4.18,8.363 6.722,17.497 7.624,27.406 0,0.513 0.193,0.772 0.579,0.772 0.642,0 1.448,-0.453 2.412,-1.351 0.965,-0.902 1.448,-1.674 1.448,-2.316 C 35.445,51.531 34.384,43.232 31.748,35.126 29.109,27.02 25.346,19.75 20.458,13.317 18.012,10.229 15.021,7.301 11.483,4.536 7.943,1.767 4.116,0.256 0,0" /></g><g
           transform="translate(245.7388,524.6281)"
           id="g28"><path
             id="path30"
             style="fill:#231f20;fill-opacity:1;fill-rule:nonzero;stroke:none"
             d="m 0,0 c -3.218,-0.259 -6.243,-1.447 -9.071,-3.57 -2.832,-2.123 -5.437,-4.632 -7.817,-7.527 -2.382,-2.895 -4.439,-5.953 -6.175,-9.168 -1.738,-3.217 -3.122,-6.176 -4.15,-8.878 6.562,0.772 12.222,3.378 16.984,7.817 4.758,4.439 7.976,9.746 9.65,15.922 0.256,0.899 0.449,1.8 0.579,2.702 0.126,0.899 0.126,1.801 0,2.702 m 4.825,-70.638 c -3.218,-2.575 -7.174,-4.824 -11.869,-6.755 -4.699,-1.929 -9.041,-2.765 -13.028,-2.508 -4.246,0 -8.299,0.705 -12.159,2.123 -3.86,1.414 -7.207,3.793 -10.036,7.14 -6.049,7.334 -8.492,16.212 -7.334,26.635 0.513,4.502 1.574,9.52 3.184,15.053 1.608,5.531 3.698,10.935 6.273,16.212 2.572,5.275 5.531,10.163 8.878,14.668 3.344,4.503 7.011,7.976 11.001,10.422 4.888,3.088 9.713,4.439 14.475,4.053 1.544,-0.13 3.185,-0.579 4.921,-1.351 1.737,-0.772 3.378,-1.737 4.922,-2.895 1.544,-1.158 2.895,-2.446 4.053,-3.86 1.158,-1.417 1.863,-2.895 2.123,-4.439 1.414,-2.316 2.442,-5.211 3.088,-8.685 0.513,-3.733 0.063,-7.367 -1.351,-10.904 -1.418,-3.541 -3.541,-6.789 -6.369,-9.747 -1.674,-1.544 -3.667,-3.088 -5.983,-4.632 -2.316,-1.544 -4.762,-2.928 -7.334,-4.149 -2.575,-1.224 -5.211,-2.22 -7.913,-2.992 -2.702,-0.772 -5.211,-1.158 -7.527,-1.158 -1.158,0 -2.286,0.097 -3.378,0.29 -1.094,0.193 -2.156,0.609 -3.184,1.254 -1.417,-4.762 -2.349,-8.944 -2.799,-12.545 -0.452,-3.603 -0.579,-6.691 -0.386,-9.263 0.194,-2.576 0.61,-4.666 1.255,-6.273 0.642,-1.61 1.414,-2.799 2.316,-3.571 3.474,-1.929 6.881,-2.895 10.229,-2.895 1.028,0 2.153,0.064 3.378,0.194 1.221,0.126 2.539,0.385 3.956,0.772 4.373,1.028 8.619,3.311 12.738,6.851 4.116,3.537 7.847,7.557 11.194,12.062 3.344,4.503 6.239,9.005 8.685,13.51 2.442,4.502 4.179,8.233 5.211,11.194 0.256,0.513 0.579,0.706 0.965,0.579 0.386,-0.129 0.802,-0.419 1.254,-0.868 0.45,-0.452 0.835,-0.965 1.158,-1.544 0.32,-0.579 0.416,-1.062 0.29,-1.448 -1.544,-7.85 -4.506,-15.313 -8.878,-22.388 -4.376,-7.077 -9.717,-13.124 -16.019,-18.142" /></g><g
           transform="translate(281.6357,491.8185)"
           id="g32"><path
             id="path34"
             style="fill:#231f20;fill-opacity:1;fill-rule:nonzero;stroke:none"
             d="M 0,0 C 0.256,-0.13 0.772,-0.323 1.544,-0.579 1.285,-0.193 1.125,0.193 1.062,0.579 0.995,0.965 0.835,1.351 0.579,1.737 Z m -5.79,-29.143 c -0.645,-5.018 -1.127,-10.229 -1.447,-15.633 -0.323,-5.404 0.223,-10.549 1.64,-15.44 1.414,0.646 2.765,1.514 4.053,2.606 1.285,1.094 2.443,2.219 3.474,3.377 2.187,2.702 3.86,5.823 5.018,9.36 1.158,3.538 1.864,7.172 2.123,10.905 0.257,4.246 0.03,8.426 -0.675,12.545 -0.709,4.116 -1.771,8.106 -3.185,11.966 l -1.158,3.474 c -1.93,0.386 -3.667,0.965 -5.211,1.737 -1.031,-4.119 -1.963,-8.269 -2.799,-12.448 -0.837,-4.183 -1.447,-8.333 -1.833,-12.449 m 32.811,-14.668 c -0.26,-3.601 -1.063,-7.301 -2.414,-11.097 -1.35,-3.794 -3.184,-7.238 -5.501,-10.326 -2.315,-3.088 -5.113,-5.597 -8.395,-7.527 -3.28,-1.929 -6.981,-2.894 -11.097,-2.894 -2.059,0 -4.182,0.384 -6.369,1.158 -0.645,0.259 -1.641,0.838 -2.991,1.736 -1.351,0.902 -2.606,1.996 -3.764,3.281 l -0.193,-0.193 c -0.515,0.386 -0.901,1.031 -1.158,1.93 -0.645,0.902 -0.965,1.674 -0.965,2.316 -0.772,2.702 -1.351,6.08 -1.737,10.133 -0.386,4.053 -0.645,8.172 -0.772,12.352 -0.129,4.179 -0.193,8.072 -0.193,11.676 0,3.6 0.064,6.303 0.193,8.106 0.772,18.012 3.408,35.705 7.913,53.075 4.503,17.37 11.065,34.031 19.686,49.986 0.386,0.772 0.836,1.641 1.351,2.606 0.513,0.965 1.062,1.833 1.64,2.605 0.579,0.772 1.255,1.382 2.027,1.834 0.772,0.45 1.737,0.546 2.895,0.289 2.572,-0.772 4.825,-2.349 6.756,-4.728 1.929,-2.382 3.599,-4.472 5.017,-6.273 0.899,-1.157 1.737,-2.412 2.509,-3.763 0.772,-1.351 1.092,-2.735 0.965,-4.149 C 32.294,67.29 32.005,66.295 31.556,65.33 31.104,64.365 30.558,63.43 29.915,62.532 25.024,54.682 20.329,46.706 15.826,38.6 11.321,30.494 7.461,22.002 4.246,13.124 5.018,12.738 5.887,11.996 6.852,10.904 7.816,9.81 8.782,8.652 9.747,7.43 10.711,6.206 11.58,4.985 12.352,3.763 c 0.772,-1.224 1.415,-2.219 1.93,-2.991 6.432,1.93 12.512,4.855 18.239,8.781 5.723,3.924 9.939,9.038 12.641,15.344 0.127,0.256 0.416,0.353 0.868,0.289 0.449,-0.066 0.899,-0.226 1.352,-0.482 0.449,-0.26 0.835,-0.549 1.157,-0.869 0.32,-0.322 0.482,-0.612 0.482,-0.868 -0.515,-3.474 -1.802,-6.755 -3.859,-9.843 -2.059,-3.088 -4.568,-5.887 -7.527,-8.395 -2.961,-2.51 -6.146,-4.633 -9.554,-6.37 -3.41,-1.736 -6.787,-3.057 -10.132,-3.956 3.214,-5.79 5.694,-11.966 7.431,-18.528 1.736,-6.562 2.282,-13.124 1.641,-19.686" /></g><g
           transform="translate(340.3467,526.8121)"
           id="g36"><path
             id="path38"
             style="fill:#231f20;fill-opacity:1;fill-rule:nonzero;stroke:none"
             d="m 0,0 v 4.429 c 2.827,1.696 5.23,3.282 7.209,4.759 1.979,1.476 3.596,2.969 4.854,4.477 1.255,1.507 2.166,3.077 2.732,4.711 0.565,1.633 0.849,3.424 0.849,5.372 0,2.01 -0.363,3.471 -1.084,4.382 -0.723,0.91 -1.525,1.367 -2.404,1.367 -0.377,0 -0.864,-0.08 -1.46,-0.236 C 10.098,29.104 9.471,28.931 8.812,28.743 8.151,28.554 7.507,28.38 6.879,28.224 6.251,28.067 5.748,27.989 5.371,27.989 c -1.257,0 -2.466,0.25 -3.628,0.754 -1.163,0.502 -2.183,1.193 -3.062,2.073 -0.881,0.879 -1.588,1.915 -2.12,3.11 -0.536,1.193 -0.802,2.512 -0.802,3.958 0,1.821 0.361,3.407 1.084,4.759 0.721,1.35 1.664,2.481 2.827,3.392 1.162,0.91 2.481,1.602 3.958,2.073 1.476,0.472 2.969,0.707 4.476,0.707 2.074,0 4.1,-0.487 6.079,-1.461 1.979,-0.974 3.722,-2.293 5.23,-3.958 1.508,-1.665 2.733,-3.627 3.675,-5.889 0.942,-2.262 1.414,-4.681 1.414,-7.257 0,-3.015 -0.472,-5.984 -1.414,-8.905 -0.942,-2.921 -2.402,-5.701 -4.382,-8.34 C 16.728,10.366 14.197,7.931 11.12,5.702 8.041,3.471 4.335,1.57 0,0" /></g><g
           transform="translate(397.6279,459.5875)"
           id="g40"><path
             id="path42"
             style="fill:#231f20;fill-opacity:1;fill-rule:nonzero;stroke:none"
             d="m 0,0 c -0.259,-0.772 -0.355,-1.48 -0.289,-2.123 0.063,-0.646 0.16,-1.288 0.289,-1.93 0.127,0 0.224,-0.033 0.29,-0.096 0.064,-0.067 0.16,-0.097 0.289,-0.097 0.773,0.386 1.961,0.932 3.571,1.641 1.607,0.705 3.184,1.543 4.729,2.508 1.544,0.966 2.894,1.961 4.053,2.992 1.158,1.028 1.736,1.993 1.736,2.895 v 0.868 c 0,0.32 -0.065,0.61 -0.192,0.869 C 10.615,7.783 6.948,8.169 3.475,8.685 2.702,7.268 1.994,5.853 1.352,4.439 0.706,3.021 0.257,1.544 0,0 m 21.81,-7.72 c -2.832,-2.189 -5.727,-3.797 -8.686,-4.825 -2.961,-1.031 -5.919,-1.544 -8.878,-1.544 -3.733,0 -7.4,0.995 -11.001,2.991 -3.603,1.994 -6.049,4.856 -7.334,8.589 -1.031,3.215 -0.838,6.529 0.579,9.94 1.415,3.407 3.022,6.784 4.825,10.132 0.513,0.772 1.381,1.188 2.606,1.254 1.222,0.064 2.153,0.031 2.799,-0.096 2.186,-0.516 4.405,-0.935 6.658,-1.255 2.25,-0.322 4.535,-0.549 6.851,-0.675 -1.543,3.214 -3.281,6.818 -5.21,10.808 -1.93,3.986 -3.637,8.136 -5.115,12.448 -1.481,4.309 -2.543,8.685 -3.184,13.124 -0.646,4.439 -0.483,8.685 0.482,12.738 0.965,4.053 2.895,7.817 5.79,11.291 2.895,3.474 7.108,6.368 12.642,8.685 1.284,0.642 2.958,0.965 5.017,0.965 2.443,0 4.792,-0.453 7.045,-1.351 2.249,-0.902 4.083,-1.867 5.5,-2.895 0.643,-0.386 1.414,-1.062 2.317,-2.027 0.898,-0.965 1.606,-1.996 2.123,-3.088 0.512,-1.094 0.705,-2.189 0.578,-3.281 -0.129,-1.095 -0.901,-2.026 -2.316,-2.798 -4.631,-2.576 -8.461,-5.887 -11.483,-9.94 -3.024,-4.053 -4.858,-8.332 -5.501,-12.834 -0.644,-5.018 -0.096,-9.717 1.641,-14.089 1.737,-4.376 3.441,-8.622 5.114,-12.738 0.643,-1.417 1.158,-2.702 1.544,-3.86 6.433,3.215 12.352,7.623 17.757,13.22 5.403,5.597 9.906,11.484 13.509,17.66 0.256,0.386 0.513,0.579 0.772,0.579 0.643,0 1.255,-0.549 1.834,-1.641 0.579,-1.095 0.738,-1.963 0.482,-2.605 C 58.35,37.442 53.877,30.364 48.153,23.932 42.427,17.497 36.025,12.093 28.95,7.72 28.82,4.502 28.179,1.574 27.021,-1.062 25.862,-3.7 24.125,-5.92 21.81,-7.72" /></g><g
           transform="translate(553.1836,443.1827)"
           id="g44"><path
             id="path46"
             style="fill:#231f20;fill-opacity:1;fill-rule:nonzero;stroke:none"
             d="m 0,0 c -3.218,-3.73 -6.852,-6.433 -10.905,-8.106 -4.053,-1.671 -8.202,-2.509 -12.449,-2.509 -4.631,0 -9.2,0.965 -13.703,2.895 -4.505,1.93 -8.557,4.762 -12.158,8.492 -4.506,4.502 -7.883,9.617 -10.133,15.343 -2.253,5.724 -3.248,11.74 -2.991,18.046 0.513,10.036 2.379,19.845 5.597,29.432 3.215,9.584 7.267,18.751 12.159,27.502 2.315,3.861 5.338,8.363 9.07,13.51 3.731,5.145 7.847,10.003 12.353,14.572 4.502,4.565 9.23,8.459 14.185,11.676 4.952,3.215 9.81,4.825 14.572,4.825 4.758,0 9.133,-1.287 13.124,-3.86 3.986,-2.575 7.267,-5.92 9.842,-10.036 1.8,-2.961 3.215,-6.016 4.247,-9.167 1.028,-3.155 1.414,-6.402 1.158,-9.747 C 33.708,96.306 31.845,90.161 28.37,84.437 24.896,78.71 20.328,74.175 14.668,70.831 13.766,70.315 12.801,69.929 11.772,69.672 11.127,69.413 10.484,69.35 9.843,69.479 c -0.646,0.127 -1.288,0.32 -1.931,0.58 -2.575,0.642 -5.084,1.767 -7.526,3.377 -2.447,1.607 -4.119,3.764 -5.019,6.465 3.345,0.643 6.785,2.22 10.326,4.729 3.537,2.509 6.819,5.5 9.843,8.974 3.022,3.475 5.564,7.141 7.623,11.001 2.057,3.86 3.281,7.397 3.667,10.615 0,0.772 -0.066,1.285 -0.192,1.544 -0.516,0.513 -1.288,0.643 -2.317,0.386 -5.663,-1.544 -11.13,-4.215 -16.405,-8.009 -5.277,-3.797 -10.228,-8.203 -14.86,-13.221 -4.632,-5.018 -8.781,-10.325 -12.448,-15.922 -3.667,-5.597 -6.726,-10.905 -9.168,-15.922 -2.06,-4.246 -4.023,-8.815 -5.887,-13.703 -1.866,-4.892 -3.377,-9.843 -4.535,-14.861 -1.159,-5.018 -1.804,-10.036 -1.93,-15.054 -0.13,-5.018 0.579,-9.91 2.123,-14.668 0.256,-0.772 0.513,-1.514 0.772,-2.22 0.256,-0.708 0.706,-1.384 1.351,-2.026 0.899,-0.899 1.93,-1.448 3.088,-1.641 1.158,-0.193 2.315,-0.159 3.474,0.097 1.8,0.516 3.473,1.48 5.018,2.895 1.544,1.414 2.958,3.022 4.245,4.825 1.285,1.8 2.413,3.667 3.378,5.597 0.965,1.93 1.768,3.667 2.412,5.211 1.801,4.116 3.215,8.458 4.246,13.027 1.029,4.566 1.029,9.101 0,13.607 2.187,-1.544 4.343,-3.088 6.466,-4.632 C -2.22,38.986 -0.13,37.312 1.93,35.512 2.958,34.48 3.89,33.452 4.729,32.424 5.563,31.392 6.302,30.234 6.947,28.95 7.72,26.89 8.105,24.704 8.105,22.388 8.362,18.269 7.75,14.249 6.272,10.325 4.791,6.399 2.701,2.958 0,0" /></g><g
           transform="translate(616.6777,503.2052)"
           id="g48"><path
             id="path50"
             style="fill:#231f20;fill-opacity:1;fill-rule:nonzero;stroke:none"
             d="m 0,0 c 2.057,-1.544 4.536,-2.735 7.431,-3.57 2.894,-0.839 5.627,-1.448 8.202,-1.834 1.415,5.145 2.316,9.97 2.702,14.475 0.257,1.93 0.386,4.053 0.386,6.369 0,2.316 -0.452,4.372 -1.351,6.176 -2.316,0 -4.472,-0.452 -6.466,-1.351 C 8.908,19.363 7.045,18.206 5.308,16.791 3.57,15.374 1.993,13.766 0.579,11.966 -0.838,10.163 -2.123,8.362 -3.28,6.562 -3.28,5.79 -3.347,5.211 -3.474,4.825 -3.733,3.923 -3.377,3.021 -2.412,2.123 -1.447,1.221 -0.646,0.513 0,0 m -14.668,-41.688 c 0.643,-0.129 1.318,-0.163 2.026,-0.096 0.706,0.063 1.382,0.159 2.028,0.289 2.828,0.772 5.403,2.057 7.719,3.86 2.316,1.801 4.406,3.924 6.273,6.369 1.863,2.443 3.504,5.018 4.921,7.72 1.415,2.702 2.636,5.275 3.667,7.72 l 0.193,0.386 c -4.505,0.643 -8.492,2.026 -11.966,4.149 -3.473,2.124 -6.112,5.308 -7.913,9.554 -0.13,-0.386 -0.322,-0.838 -0.579,-1.351 -1.804,-3.86 -3.281,-7.85 -4.438,-11.966 -1.159,-4.119 -2.061,-8.299 -2.702,-12.545 -0.26,-2.189 -0.483,-4.602 -0.676,-7.237 -0.194,-2.639 0.289,-4.922 1.447,-6.852 m 25.283,-11.194 c -2.189,-1.544 -4.506,-2.768 -6.948,-3.667 -2.445,-0.901 -4.954,-1.224 -7.526,-0.965 -1.032,0 -1.931,0.064 -2.703,0.193 -0.772,0.127 -1.543,0.32 -2.316,0.579 -2.575,0.127 -4.954,0.836 -7.141,2.123 -2.189,1.285 -4.119,2.895 -5.79,4.826 -3.347,3.73 -5.856,7.912 -7.527,12.544 -1.674,4.632 -2.315,9.584 -1.93,14.861 0.256,4.502 1.029,9.487 2.317,14.958 1.284,5.467 3.054,10.838 5.306,16.115 2.25,5.274 4.922,10.196 8.01,14.765 3.088,4.565 6.563,8.135 10.422,10.711 2.187,1.414 4.44,2.476 6.755,3.184 2.316,0.706 4.695,0.932 7.142,0.676 2.958,0 5.723,-0.579 8.298,-1.737 2.573,-1.158 4.888,-2.768 6.948,-4.825 3.601,-3.604 6.399,-7.657 8.395,-12.159 1.994,-4.506 2.926,-9.394 2.799,-14.668 0,-3.088 -0.193,-6.176 -0.579,-9.264 4.116,0.899 8.01,2.219 11.677,3.957 3.667,1.737 7.171,3.89 10.518,6.465 0.386,0.256 0.738,0.223 1.062,-0.097 0.319,-0.322 0.546,-0.805 0.675,-1.447 0.126,-0.645 0.193,-1.288 0.193,-1.93 0,-0.645 -0.13,-1.095 -0.386,-1.351 -3.348,-3.733 -7.207,-6.821 -11.58,-9.264 -4.376,-2.446 -9.008,-4.312 -13.895,-5.597 -0.903,-3.347 -2.028,-6.884 -3.378,-10.615 -1.351,-3.733 -2.928,-7.367 -4.729,-10.904 -1.804,-3.541 -3.893,-6.852 -6.272,-9.939 -2.383,-3.089 -4.989,-5.598 -7.817,-7.528" /></g><g
           transform="translate(784.9727,446.4635)"
           id="g52"><path
             id="path54"
             style="fill:#231f20;fill-opacity:1;fill-rule:nonzero;stroke:none"
             d="m 0,0 c -0.902,-0.516 -1.964,-0.838 -3.185,-0.965 -1.224,-0.13 -2.286,-0.066 -3.184,0.193 -2.575,0.513 -5.019,1.544 -7.334,3.088 -2.317,1.544 -4.183,3.601 -5.598,6.176 -1.673,2.958 -2.638,6.11 -2.894,9.457 -0.26,3.344 -0.13,6.722 0.385,10.133 0.513,3.407 1.255,6.785 2.22,10.132 0.965,3.344 1.834,6.562 2.606,9.65 0.898,3.73 1.767,7.493 2.605,11.29 0.835,3.794 1.768,7.557 2.799,11.291 0.513,1.67 0.965,3.311 1.351,4.921 0.385,1.608 0.642,3.311 0.772,5.114 0.126,0.643 0.159,1.285 0.096,1.931 -0.066,0.642 -0.096,1.284 -0.096,1.93 -7.98,-9.264 -15.217,-19.044 -21.713,-29.336 -6.498,-10.296 -12.129,-21.037 -16.888,-32.231 -1.417,-3.218 -2.701,-6.562 -3.859,-10.036 -1.158,-3.474 -2.639,-6.755 -4.439,-9.843 -0.13,-0.516 -0.516,-1.158 -1.158,-1.93 -0.259,-0.386 -0.772,-0.579 -1.545,-0.579 -1.672,-0.645 -3.346,-0.709 -5.017,-0.193 -2.575,0.513 -5.018,1.544 -7.334,3.088 -2.317,1.544 -4.183,3.601 -5.597,6.176 -1.674,2.959 -2.639,6.109 -2.895,9.457 -0.259,3.344 -0.129,6.689 0.386,10.036 0.513,3.344 1.254,6.689 2.219,10.036 0.965,3.344 1.834,6.562 2.606,9.65 0.899,3.73 1.767,7.493 2.605,11.29 0.836,3.794 1.768,7.557 2.799,11.291 0.513,1.8 0.965,3.504 1.35,5.114 0.387,1.607 0.643,3.311 0.773,5.115 0.127,0.642 0.16,1.254 0.097,1.833 -0.067,0.579 -0.097,1.188 -0.097,1.834 -7.98,-9.264 -15.184,-18.981 -21.616,-29.143 -6.435,-10.166 -12.096,-20.91 -16.984,-32.231 -1.418,-3.347 -2.768,-6.851 -4.053,-10.518 -1.287,-3.667 -2.831,-7.045 -4.632,-10.133 -0.386,-1.417 -1.157,-2.06 -2.316,-1.93 -0.645,0.127 -1.48,0.513 -2.508,1.158 -1.033,0.642 -2.094,1.414 -3.185,2.316 -1.095,0.899 -2.06,1.8 -2.896,2.702 -0.837,0.898 -1.447,1.671 -1.833,2.316 -0.515,1.158 -0.772,2.636 -0.772,4.439 -0.901,13.25 -0.192,26.151 2.123,38.696 2.316,12.545 6.755,24.671 13.317,36.381 0.642,1.158 1.415,2.476 2.316,3.956 0.898,1.478 2.442,1.96 4.632,1.448 0.899,-0.13 2.25,-0.742 4.053,-1.834 1.8,-1.094 3.634,-2.349 5.5,-3.763 1.864,-1.418 3.474,-2.865 4.826,-4.343 1.35,-1.481 2.026,-2.798 2.026,-3.956 0.127,-0.902 0,-1.707 -0.386,-2.413 -0.386,-0.708 -0.772,-1.384 -1.158,-2.026 -4.892,-7.078 -9.33,-14.445 -13.317,-22.099 -3.99,-7.657 -6.822,-15.796 -8.492,-24.414 0.256,0.386 0.416,0.772 0.483,1.158 0.063,0.386 0.223,0.772 0.482,1.158 5.404,11.32 11.547,22.065 18.432,32.231 6.881,10.162 14.441,19.942 22.677,29.335 0.385,0.387 0.836,0.513 1.351,0.387 1.414,0.385 3.055,0.289 4.921,-0.29 1.864,-0.579 3.312,-1.128 4.343,-1.64 3.86,-1.93 7.074,-4.699 9.649,-8.299 1.415,-1.93 2.317,-3.927 2.702,-5.983 0.387,-2.06 0.546,-4.15 0.483,-6.273 -0.067,-2.123 -0.356,-4.246 -0.868,-6.369 -0.516,-2.123 -1.032,-4.279 -1.544,-6.465 -1.158,-4.892 -2.317,-9.683 -3.474,-14.379 -1.158,-4.698 -2.316,-9.426 -3.474,-14.185 -0.386,-1.418 -0.742,-2.798 -1.062,-4.15 -0.322,-1.351 -0.612,-2.735 -0.868,-4.149 5.66,12.864 12.351,25.283 20.072,37.249 7.72,11.966 16.212,23.223 25.476,33.775 0.385,0.386 0.835,0.449 1.35,0.192 1.544,0.387 3.215,0.29 5.019,-0.289 1.8,-0.579 3.215,-1.128 4.246,-1.64 3.986,-2.06 7.204,-4.825 9.649,-8.299 1.414,-1.93 2.317,-3.927 2.703,-5.984 0.385,-2.059 0.545,-4.149 0.482,-6.272 C 10.645,68.418 10.355,66.295 9.843,64.172 9.327,62.049 8.812,59.893 8.299,57.707 7.141,52.815 5.982,48.023 4.824,43.328 3.667,38.63 2.509,33.901 1.351,29.143 0.705,26.567 0.029,23.866 -0.676,21.037 -1.385,18.205 -1.61,15.44 -1.352,12.738 c 5.019,2.573 9.457,5.82 13.318,9.746 3.859,3.924 7.14,8.299 9.843,13.124 2.702,4.826 4.888,9.94 6.561,15.344 1.671,5.404 2.896,10.741 3.667,16.019 0,0.512 0.257,0.772 0.773,0.772 0.642,0 1.414,-0.549 2.315,-1.641 0.899,-1.094 1.352,-1.963 1.352,-2.605 0,-9.394 -1.481,-18.432 -4.44,-27.117 C 29.076,27.695 24.896,20.072 19.492,13.51 16.917,10.292 13.959,7.364 10.614,4.729 7.268,2.09 3.729,0.513 0,0" /></g><g
           transform="translate(821.4473,420.0226)"
           id="g56"><path
             id="path58"
             style="fill:#231f20;fill-opacity:1;fill-rule:nonzero;stroke:none"
             d="M 0,0 C 0,-0.643 0.03,-1.574 0.097,-2.799 0.16,-4.02 0.127,-5.274 0,-6.562 c -0.13,-1.285 -0.419,-2.413 -0.868,-3.377 -0.452,-0.965 -1.128,-1.381 -2.027,-1.254 -0.645,0.129 -1.64,0.804 -2.992,2.025 -1.35,1.225 -2.348,2.156 -2.991,2.799 -2.189,2.189 -3.54,4.086 -4.053,5.693 -0.515,1.611 -0.772,3.894 -0.772,6.852 0,18.784 1.64,37.119 4.922,55.005 C -5.5,79.063 0,96.626 7.72,113.87 c 0.386,0.772 0.772,1.703 1.158,2.798 0.386,1.092 0.869,2.057 1.447,2.895 0.579,0.835 1.255,1.511 2.028,2.026 0.771,0.513 1.736,0.643 2.894,0.387 1.158,-0.26 2.669,-1.095 4.535,-2.51 1.864,-1.417 3.667,-3.088 5.405,-5.017 1.737,-1.93 3.214,-3.894 4.439,-5.887 1.221,-1.996 1.833,-3.7 1.833,-5.114 0,-1.158 -0.193,-2.253 -0.579,-3.281 -0.386,-1.032 -0.901,-2.06 -1.544,-3.088 -1.031,-1.931 -2.06,-3.893 -3.088,-5.887 -1.031,-1.996 -2.06,-4.023 -3.088,-6.079 1.93,2.442 4.469,5.434 7.623,8.974 3.152,3.538 6.563,6.948 10.23,10.229 3.667,3.281 7.3,6.08 10.904,8.395 3.601,2.316 6.818,3.475 9.649,3.475 2.317,0 4.407,-0.839 6.274,-2.509 1.863,-1.674 3.31,-3.861 4.342,-6.562 1.285,-3.474 1.737,-7.208 1.351,-11.195 -0.387,-3.989 -0.902,-7.786 -1.544,-11.386 -1.158,-6.176 -3.089,-12.192 -5.79,-18.046 -2.702,-5.856 -5.92,-11.29 -9.65,-16.308 1.801,0.386 3.6,0.965 5.404,1.737 6.947,2.829 12.994,6.852 18.142,12.062 5.144,5.211 8.811,11.484 11.001,18.818 0.127,0.386 0.385,0.545 0.772,0.482 0.386,-0.066 0.802,-0.259 1.254,-0.579 0.449,-0.323 0.836,-0.708 1.158,-1.158 0.32,-0.452 0.483,-0.805 0.483,-1.061 -0.516,-5.79 -2.382,-11.357 -5.597,-16.695 -3.218,-5.34 -7.464,-9.939 -12.738,-13.799 -2.702,-2.06 -5.727,-3.86 -9.072,-5.404 -3.346,-1.544 -6.883,-2.253 -10.614,-2.123 -1.674,0 -3.603,0.32 -5.79,0.965 -2.832,-2.962 -5.92,-5.501 -9.264,-7.624 -3.347,-2.123 -6.884,-3.184 -10.615,-3.184 -4.246,0 -7.913,1.318 -11.001,3.956 -3.088,2.636 -5.018,6.013 -5.79,10.133 -0.13,0.642 -0.13,1.351 0,2.123 0.127,0.772 0.353,1.447 0.676,2.026 0.319,0.58 0.771,0.996 1.351,1.255 0.579,0.256 1.317,0.193 2.219,-0.193 1.8,-0.902 3.731,-1.351 5.79,-1.351 2.703,0 5.308,0.772 7.817,2.316 2.509,1.544 4.825,3.408 6.947,5.597 2.123,2.186 4.054,4.565 5.79,7.141 1.737,2.572 3.248,4.888 4.536,6.948 5.53,8.878 9.264,18.654 11.194,29.336 -0.516,-0.26 -0.998,-0.483 -1.448,-0.676 -0.452,-0.193 -0.934,-0.419 -1.447,-0.675 C 48.184,95.535 40.144,88.973 33.582,80.867 28.435,74.691 23.932,68.096 20.072,61.084 16.212,54.07 12.223,47.155 8.106,40.337 7.591,39.435 6.818,39.306 5.79,39.951 4.116,33.389 2.732,26.761 1.641,20.072 0.546,13.383 0,6.692 0,0" /></g><g
           transform="translate(924.7012,490.4674)"
           id="g60"><path
             id="path62"
             style="fill:#231f20;fill-opacity:1;fill-rule:nonzero;stroke:none"
             d="m 0,0 c -1.931,-5.148 -3.348,-10.326 -4.246,-15.537 -0.902,-5.211 -1.352,-10.455 -1.352,-15.729 2.959,1.8 5.854,4.117 8.686,6.948 2.828,2.829 5.5,5.917 8.009,9.264 2.509,3.345 4.792,6.755 6.851,10.229 2.057,3.474 3.731,6.689 5.019,9.65 1.544,8.362 4.053,16.598 7.526,24.704 -0.259,-0.13 -0.771,-0.193 -1.544,-0.193 C 24.96,29.722 21.423,28.95 18.335,27.02 15.247,25.09 12.512,22.581 10.132,19.493 7.75,16.405 5.724,13.058 4.053,9.457 2.379,5.853 1.028,2.702 0,0 m 20.65,-21.423 c -1.158,-1.674 -2.797,-3.86 -4.921,-6.562 -2.123,-2.702 -4.439,-5.374 -6.948,-8.01 -2.509,-2.638 -5.114,-4.891 -7.816,-6.755 -2.702,-1.866 -5.211,-2.798 -7.527,-2.798 -3.218,0 -5.824,0.932 -7.817,2.798 -1.996,1.864 -3.507,4.18 -4.535,6.949 -1.031,2.765 -1.737,5.693 -2.123,8.781 -0.386,3.088 -0.579,5.853 -0.579,8.299 -0.127,6.948 0.706,13.8 2.509,20.554 1.8,6.755 4.439,13.348 7.913,19.783 1.414,2.702 3.054,5.404 4.922,8.106 1.863,2.702 3.986,5.177 6.368,7.43 2.38,2.25 4.985,4.053 7.817,5.404 2.828,1.351 5.853,2.027 9.07,2.027 1.544,0 3.215,-0.227 5.019,-0.676 1.8,-0.452 3.44,-1.128 4.921,-2.026 1.477,-0.902 2.765,-1.997 3.86,-3.281 1.092,-1.288 1.704,-2.832 1.833,-4.632 0.387,0.898 0.803,1.767 1.255,2.605 0.449,0.836 0.932,1.704 1.447,2.606 0.257,0.512 0.513,1.061 0.773,1.64 0.256,0.579 0.579,1.188 0.965,1.834 0.127,0.256 0.192,0.449 0.192,0.579 0,0.126 0.064,0.256 0.193,0.386 0.386,1.028 0.965,1.414 1.738,1.158 0.771,0.386 1.736,0.578 2.894,0.578 2.573,-0.129 4.986,-0.868 7.238,-2.219 2.25,-1.351 4.212,-2.542 5.886,-3.57 1.029,-0.646 2.027,-1.384 2.991,-2.22 0.966,-0.838 1.512,-1.77 1.641,-2.798 0.127,-0.646 0,-1.351 -0.386,-2.123 -0.385,-0.772 -0.838,-1.481 -1.35,-2.123 C 54.488,24.638 51.305,19.267 48.539,14.186 45.771,9.101 43.425,3.957 41.494,-1.254 c -1.93,-5.211 -3.41,-10.712 -4.438,-16.502 -1.032,-5.79 -1.544,-12.159 -1.544,-19.107 2.056,0.513 3.923,1.255 5.596,2.219 1.671,0.966 3.282,2.09 4.826,3.378 7.461,5.79 13.413,12.898 17.852,21.327 4.439,8.425 7.044,17.273 7.817,26.537 0,0.512 0.319,0.772 0.964,0.772 0.643,0 1.381,-0.289 2.22,-0.869 0.835,-0.579 1.317,-1.191 1.447,-1.833 0.513,-7.593 -0.482,-15.217 -2.991,-22.871 -2.51,-7.656 -6.209,-14.764 -11.097,-21.326 -2.576,-3.347 -5.535,-6.466 -8.878,-9.36 -3.348,-2.895 -7.015,-4.859 -11.001,-5.887 -2.832,-0.645 -5.405,-0.708 -7.72,-0.193 -0.13,-0.13 -0.453,-0.193 -0.966,-0.193 -0.644,-0.13 -1.673,0.193 -3.088,0.965 -1.417,0.772 -2.445,1.285 -3.088,1.544 -1.544,0.642 -2.798,1.447 -3.763,2.413 -0.965,0.965 -1.64,2.346 -2.027,4.149 -0.386,0.899 -0.452,1.671 -0.192,2.316 -0.26,2.057 -0.42,4.116 -0.483,6.176 -0.066,2.057 -0.163,4.117 -0.29,6.176" /></g><g
           transform="translate(996.8799,459.5875)"
           id="g64"><path
             id="path66"
             style="fill:#231f20;fill-opacity:1;fill-rule:nonzero;stroke:none"
             d="m 0,0 c -0.259,-0.772 -0.355,-1.48 -0.289,-2.123 0.063,-0.646 0.16,-1.288 0.289,-1.93 0.127,0 0.224,-0.033 0.29,-0.096 0.064,-0.067 0.16,-0.097 0.289,-0.097 0.773,0.386 1.961,0.932 3.571,1.641 1.607,0.705 3.184,1.543 4.729,2.508 1.544,0.966 2.894,1.961 4.053,2.992 1.158,1.028 1.736,1.993 1.736,2.895 v 0.868 c 0,0.32 -0.065,0.61 -0.192,0.869 C 10.615,7.783 6.948,8.169 3.475,8.685 2.702,7.268 1.994,5.853 1.352,4.439 0.706,3.021 0.257,1.544 0,0 m 21.81,-7.72 c -2.832,-2.189 -5.727,-3.797 -8.686,-4.825 -2.961,-1.031 -5.919,-1.544 -8.878,-1.544 -3.733,0 -7.4,0.995 -11.001,2.991 -3.603,1.994 -6.049,4.856 -7.334,8.589 -1.031,3.215 -0.838,6.529 0.579,9.94 1.415,3.407 3.022,6.784 4.825,10.132 0.513,0.772 1.381,1.188 2.606,1.254 1.222,0.064 2.153,0.031 2.799,-0.096 2.186,-0.516 4.405,-0.935 6.658,-1.255 2.25,-0.322 4.535,-0.549 6.851,-0.675 -1.543,3.214 -3.281,6.818 -5.21,10.808 -1.93,3.986 -3.637,8.136 -5.115,12.448 -1.481,4.309 -2.543,8.685 -3.184,13.124 -0.646,4.439 -0.483,8.685 0.482,12.738 0.965,4.053 2.895,7.817 5.79,11.291 2.895,3.474 7.108,6.368 12.642,8.685 1.284,0.642 2.958,0.965 5.017,0.965 2.443,0 4.792,-0.453 7.045,-1.351 2.249,-0.902 4.083,-1.867 5.5,-2.895 0.643,-0.386 1.414,-1.062 2.317,-2.027 0.898,-0.965 1.606,-1.996 2.123,-3.088 0.512,-1.094 0.705,-2.189 0.578,-3.281 -0.129,-1.095 -0.901,-2.026 -2.316,-2.798 -4.631,-2.576 -8.461,-5.887 -11.483,-9.94 -3.024,-4.053 -4.858,-8.332 -5.501,-12.834 -0.644,-5.018 -0.096,-9.717 1.641,-14.089 1.737,-4.376 3.441,-8.622 5.114,-12.738 0.643,-1.417 1.158,-2.702 1.544,-3.86 6.433,3.215 12.352,7.623 17.757,13.22 5.403,5.597 9.906,11.484 13.509,17.66 0.256,0.386 0.513,0.579 0.772,0.579 0.643,0 1.255,-0.549 1.834,-1.641 0.579,-1.095 0.738,-1.963 0.482,-2.605 C 58.35,37.442 53.877,30.364 48.153,23.932 42.427,17.497 36.025,12.093 28.95,7.72 28.82,4.502 28.179,1.574 27.021,-1.062 25.862,-3.7 24.125,-5.92 21.81,-7.72" /></g><g
           transform="translate(1041.2695,459.5875)"
           id="g68"><path
             id="path70"
             style="fill:#231f20;fill-opacity:1;fill-rule:nonzero;stroke:none"
             d="m 0,0 c -0.259,-0.772 -0.355,-1.48 -0.289,-2.123 0.063,-0.646 0.16,-1.288 0.289,-1.93 0.127,0 0.224,-0.033 0.29,-0.096 0.064,-0.067 0.16,-0.097 0.289,-0.097 0.773,0.386 1.961,0.932 3.571,1.641 1.607,0.705 3.184,1.543 4.729,2.508 1.544,0.966 2.894,1.961 4.053,2.992 1.158,1.028 1.736,1.993 1.736,2.895 v 0.868 c 0,0.32 -0.065,0.61 -0.192,0.869 C 10.615,7.783 6.948,8.169 3.475,8.685 2.702,7.268 1.994,5.853 1.352,4.439 0.706,3.021 0.257,1.544 0,0 m 21.81,-7.72 c -2.832,-2.189 -5.727,-3.797 -8.686,-4.825 -2.961,-1.031 -5.919,-1.544 -8.878,-1.544 -3.733,0 -7.4,0.995 -11.001,2.991 -3.603,1.994 -6.049,4.856 -7.334,8.589 -1.031,3.215 -0.838,6.529 0.579,9.94 1.415,3.407 3.022,6.784 4.825,10.132 0.513,0.772 1.381,1.188 2.606,1.254 1.222,0.064 2.153,0.031 2.799,-0.096 2.186,-0.516 4.405,-0.935 6.658,-1.255 2.25,-0.322 4.535,-0.549 6.851,-0.675 -1.543,3.214 -3.281,6.818 -5.21,10.808 -1.93,3.986 -3.637,8.136 -5.115,12.448 -1.481,4.309 -2.543,8.685 -3.184,13.124 -0.646,4.439 -0.483,8.685 0.482,12.738 0.965,4.053 2.895,7.817 5.79,11.291 2.895,3.474 7.108,6.368 12.642,8.685 1.284,0.642 2.958,0.965 5.017,0.965 2.443,0 4.792,-0.453 7.045,-1.351 2.249,-0.902 4.083,-1.867 5.5,-2.895 0.643,-0.386 1.414,-1.062 2.317,-2.027 0.898,-0.965 1.606,-1.996 2.123,-3.088 0.512,-1.094 0.705,-2.189 0.578,-3.281 -0.129,-1.095 -0.901,-2.026 -2.316,-2.798 -4.631,-2.576 -8.461,-5.887 -11.483,-9.94 -3.024,-4.053 -4.858,-8.332 -5.501,-12.834 -0.644,-5.018 -0.096,-9.717 1.641,-14.089 1.737,-4.376 3.441,-8.622 5.114,-12.738 0.643,-1.417 1.158,-2.702 1.544,-3.86 6.433,3.215 12.352,7.623 17.757,13.22 5.403,5.597 9.906,11.484 13.509,17.66 0.256,0.386 0.513,0.579 0.772,0.579 0.643,0 1.255,-0.549 1.834,-1.641 0.579,-1.095 0.738,-1.963 0.482,-2.605 C 58.35,37.442 53.877,30.364 48.153,23.932 42.427,17.497 36.025,12.093 28.95,7.72 28.82,4.502 28.179,1.574 27.021,-1.062 25.862,-3.7 24.125,-5.92 21.81,-7.72" /></g></g></g></g></svg>