<?xml version="1.0" encoding="utf-8"?>
<!-- Generator: Adobe Illustrator 24.0.1, SVG Export Plug-In . SVG Version: 6.00 Build 0)  -->
<svg version="1.1" id="Calque_1" xmlns="http://www.w3.org/2000/svg" xmlns:xlink="http://www.w3.org/1999/xlink" x="0px" y="0px"
	 viewBox="0 0 1116 841.89" style="enable-background:new 0 0 1116 841.89;" xml:space="preserve">
<path d="M627.29,391.57c-2.19,1.54-4.51,2.77-6.95,3.67c-2.45,0.9-4.95,1.22-7.53,0.96c-1.03,0-1.93-0.06-2.7-0.19
	c-0.77-0.13-1.54-0.32-2.32-0.58c-2.58-0.13-4.95-0.84-7.14-2.12c-2.19-1.28-4.12-2.9-5.79-4.83c-3.35-3.73-5.86-7.91-7.53-12.54
	c-1.67-4.63-2.32-9.58-1.93-14.86c0.26-4.5,1.03-9.49,2.32-14.96c1.28-5.47,3.05-10.84,5.31-16.12c2.25-5.27,4.92-10.2,8.01-14.76
	c3.09-4.57,6.56-8.14,10.42-10.71c2.19-1.41,4.44-2.48,6.75-3.18c2.32-0.71,4.7-0.93,7.14-0.68c2.96,0,5.72,0.58,8.3,1.74
	c2.57,1.16,4.89,2.77,6.95,4.82c3.6,3.6,6.4,7.66,8.4,12.16c1.99,4.51,2.93,9.39,2.8,14.67c0,3.09-0.19,6.18-0.58,9.26
	c4.12-0.9,8.01-2.22,11.68-3.96c3.67-1.74,7.17-3.89,10.52-6.47c0.39-0.26,0.74-0.22,1.06,0.1c0.32,0.32,0.55,0.81,0.67,1.45
	c0.13,0.65,0.19,1.29,0.19,1.93c0,0.65-0.13,1.09-0.39,1.35c-3.35,3.73-7.21,6.82-11.58,9.26c-4.38,2.45-9.01,4.31-13.9,5.6
	c-0.9,3.35-2.03,6.88-3.38,10.61c-1.35,3.73-2.93,7.37-4.73,10.9c-1.8,3.54-3.89,6.85-6.27,9.94
	C632.73,387.13,630.12,389.64,627.29,391.57z M602.01,380.37c0.64,0.13,1.32,0.16,2.03,0.1c0.71-0.06,1.38-0.16,2.03-0.29
	c2.83-0.77,5.4-2.06,7.72-3.86c2.32-1.8,4.41-3.92,6.27-6.37c1.86-2.44,3.5-5.02,4.92-7.72c1.42-2.7,2.64-5.27,3.67-7.72l0.19-0.39
	c-4.5-0.64-8.49-2.03-11.97-4.15s-6.11-5.31-7.91-9.55c-0.13,0.39-0.32,0.84-0.58,1.35c-1.8,3.86-3.28,7.85-4.44,11.97
	c-1.16,4.12-2.06,8.3-2.7,12.54c-0.26,2.19-0.48,4.6-0.68,7.24C600.37,376.16,600.85,378.44,602.01,380.37z M616.68,338.68
	c2.06,1.54,4.54,2.73,7.43,3.57c2.89,0.84,5.63,1.45,8.2,1.83c1.42-5.14,2.32-9.97,2.7-14.47c0.26-1.93,0.39-4.05,0.39-6.37
	s-0.45-4.37-1.35-6.18c-2.32,0-4.47,0.45-6.47,1.35c-2,0.9-3.86,2.06-5.6,3.47c-1.74,1.42-3.31,3.02-4.73,4.83
	c-1.42,1.8-2.7,3.6-3.86,5.4c0,0.77-0.07,1.35-0.19,1.74c-0.26,0.9,0.1,1.8,1.06,2.7C615.23,337.46,616.03,338.17,616.68,338.68z"/>
</svg>
