<?xml version="1.0" encoding="utf-8"?>
<!-- Generator: Adobe Illustrator 24.0.1, SVG Export Plug-In . SVG Version: 6.00 Build 0)  -->
<svg version="1.1" id="Calque_1" xmlns="http://www.w3.org/2000/svg" xmlns:xlink="http://www.w3.org/1999/xlink" x="0px" y="0px"
	 viewBox="0 0 1116 841.89" style="enable-background:new 0 0 1116 841.89;" xml:space="preserve">
<path d="M821.45,421.87c0,0.64,0.03,1.57,0.1,2.8c0.06,1.22,0.03,2.48-0.1,3.76c-0.13,1.28-0.42,2.41-0.87,3.38
	c-0.45,0.96-1.13,1.38-2.03,1.25c-0.65-0.13-1.64-0.8-2.99-2.03c-1.35-1.22-2.35-2.16-2.99-2.8c-2.19-2.19-3.54-4.09-4.05-5.69
	c-0.52-1.61-0.77-3.89-0.77-6.85c0-18.78,1.64-37.12,4.92-55c3.28-17.88,8.78-35.45,16.5-52.69c0.39-0.77,0.77-1.7,1.16-2.8
	c0.39-1.09,0.87-2.06,1.45-2.9c0.58-0.84,1.25-1.51,2.03-2.03c0.77-0.51,1.74-0.64,2.89-0.39c1.16,0.26,2.67,1.09,4.54,2.51
	c1.86,1.42,3.67,3.09,5.4,5.02c1.74,1.93,3.21,3.89,4.44,5.89c1.22,2,1.83,3.7,1.83,5.11c0,1.16-0.19,2.25-0.58,3.28
	c-0.39,1.03-0.9,2.06-1.54,3.09c-1.03,1.93-2.06,3.89-3.09,5.89c-1.03,2-2.06,4.02-3.09,6.08c1.93-2.44,4.47-5.43,7.62-8.97
	c3.15-3.54,6.56-6.95,10.23-10.23c3.67-3.28,7.3-6.08,10.9-8.4c3.6-2.32,6.82-3.47,9.65-3.47c2.32,0,4.41,0.84,6.27,2.51
	c1.86,1.67,3.31,3.86,4.34,6.56c1.29,3.47,1.74,7.21,1.35,11.19c-0.39,3.99-0.9,7.79-1.54,11.39c-1.16,6.18-3.09,12.19-5.79,18.05
	c-2.7,5.86-5.92,11.29-9.65,16.31c1.8-0.39,3.6-0.97,5.4-1.74c6.95-2.83,12.99-6.85,18.14-12.06c5.14-5.21,8.81-11.48,11-18.82
	c0.13-0.39,0.39-0.55,0.77-0.48c0.39,0.07,0.8,0.26,1.25,0.58c0.45,0.32,0.84,0.71,1.16,1.16c0.32,0.45,0.48,0.81,0.48,1.06
	c-0.52,5.79-2.38,11.36-5.6,16.69c-3.22,5.34-7.46,9.94-12.74,13.8c-2.7,2.06-5.73,3.86-9.07,5.4c-3.35,1.54-6.88,2.25-10.61,2.12
	c-1.67,0-3.6-0.32-5.79-0.96c-2.83,2.96-5.92,5.5-9.26,7.62c-3.35,2.12-6.88,3.18-10.61,3.18c-4.25,0-7.91-1.32-11-3.96
	c-3.09-2.64-5.02-6.01-5.79-10.13c-0.13-0.64-0.13-1.35,0-2.12c0.13-0.77,0.35-1.45,0.68-2.03c0.32-0.58,0.77-1,1.35-1.25
	c0.58-0.26,1.32-0.19,2.22,0.19c1.8,0.9,3.73,1.35,5.79,1.35c2.7,0,5.31-0.77,7.82-2.32s4.83-3.41,6.95-5.6
	c2.12-2.19,4.05-4.57,5.79-7.14c1.74-2.57,3.25-4.89,4.54-6.95c5.53-8.88,9.26-18.65,11.19-29.34c-0.52,0.26-1,0.48-1.45,0.68
	c-0.45,0.19-0.93,0.42-1.45,0.68c-9.52,5.02-17.56,11.58-24.13,19.69c-5.15,6.18-9.65,12.77-13.51,19.78
	c-3.86,7.01-7.85,13.93-11.97,20.75c-0.52,0.9-1.29,1.03-2.32,0.39c-1.67,6.56-3.06,13.19-4.15,19.88
	C821.99,408.48,821.45,415.18,821.45,421.87z"/>
</svg>
