<?xml version="1.0" encoding="utf-8"?>
<!-- Generator: Adobe Illustrator 24.0.1, SVG Export Plug-In . SVG Version: 6.00 Build 0)  -->
<svg version="1.1" id="Calque_1" xmlns="http://www.w3.org/2000/svg" xmlns:xlink="http://www.w3.org/1999/xlink" x="0px" y="0px"
	 viewBox="0 0 1116 841.89" style="enable-background:new 0 0 1116 841.89;" xml:space="preserve">
<path d="M419.44,390.02c-2.83,2.19-5.73,3.8-8.69,4.82c-2.96,1.03-5.92,1.54-8.88,1.54c-3.73,0-7.4-1-11-2.99
	c-3.6-1.99-6.05-4.86-7.33-8.59c-1.03-3.21-0.84-6.53,0.58-9.94c1.42-3.41,3.02-6.78,4.83-10.13c0.51-0.77,1.38-1.19,2.61-1.25
	c1.22-0.06,2.15-0.03,2.8,0.1c2.19,0.52,4.41,0.93,6.66,1.25c2.25,0.32,4.54,0.55,6.85,0.68c-1.54-3.21-3.28-6.82-5.21-10.81
	c-1.93-3.99-3.64-8.14-5.11-12.45c-1.48-4.31-2.54-8.69-3.18-13.12c-0.65-4.44-0.48-8.68,0.48-12.74c0.96-4.05,2.89-7.82,5.79-11.29
	c2.89-3.47,7.11-6.37,12.64-8.69c1.28-0.64,2.96-0.96,5.02-0.96c2.44,0,4.79,0.45,7.04,1.35c2.25,0.9,4.08,1.87,5.5,2.9
	c0.64,0.39,1.41,1.06,2.32,2.03c0.9,0.96,1.61,2,2.12,3.09c0.51,1.09,0.71,2.19,0.58,3.28c-0.13,1.09-0.9,2.03-2.32,2.8
	c-4.63,2.58-8.46,5.89-11.48,9.94c-3.02,4.05-4.86,8.33-5.5,12.83c-0.64,5.02-0.1,9.72,1.64,14.09c1.74,4.38,3.44,8.62,5.11,12.74
	c0.64,1.42,1.16,2.7,1.54,3.86c6.43-3.21,12.35-7.62,17.76-13.22c5.4-5.6,9.91-11.48,13.51-17.66c0.26-0.39,0.51-0.58,0.77-0.58
	c0.64,0,1.25,0.55,1.83,1.64c0.58,1.09,0.74,1.96,0.48,2.61c-3.22,7.72-7.69,14.8-13.41,21.23c-5.73,6.44-12.13,11.84-19.2,16.21
	c-0.13,3.22-0.77,6.15-1.93,8.78C423.49,386,421.75,388.22,419.44,390.02z M397.63,382.3c-0.26,0.77-0.36,1.48-0.29,2.12
	c0.06,0.65,0.16,1.29,0.29,1.93c0.13,0,0.22,0.03,0.29,0.1c0.06,0.07,0.16,0.1,0.29,0.1c0.77-0.39,1.96-0.93,3.57-1.64
	c1.61-0.71,3.18-1.54,4.73-2.51c1.54-0.97,2.89-1.96,4.05-2.99c1.16-1.03,1.74-1.99,1.74-2.9c0-0.26,0-0.55,0-0.87
	c0-0.32-0.07-0.61-0.19-0.87c-3.86-0.26-7.53-0.64-11-1.16c-0.77,1.42-1.48,2.83-2.12,4.25
	C398.33,379.28,397.88,380.76,397.63,382.3z"/>
</svg>
