<svg id="baa97376-f268-4d1a-b7d4-3b39c3bcc8c4" data-name="Calque 1" xmlns="http://www.w3.org/2000/svg" viewBox="0 0 76.43 100.94"><defs><style>.f5182d42-fe75-47bc-9bd6-38c84f870785{fill:#1d1d1b;}</style></defs><title>s2</title><path class="f5182d42-fe75-47bc-9bd6-38c84f870785" d="M1018.69,390a30.76,30.76,0,0,1-8.69,4.83,26.85,26.85,0,0,1-8.87,1.54,22.38,22.38,0,0,1-11-3,15.24,15.24,0,0,1-7.34-8.59,14,14,0,0,1,.58-9.94,111.17,111.17,0,0,1,4.83-10.13,3.12,3.12,0,0,1,2.6-1.26,12.21,12.21,0,0,1,2.8.1c2.19.52,4.4.94,6.66,1.26s4.53.54,6.85.67q-2.31-4.81-5.21-10.81a110.83,110.83,0,0,1-5.12-12.45,71.68,71.68,0,0,1-3.18-13.12,33.67,33.67,0,0,1,.48-12.74,27.62,27.62,0,0,1,5.79-11.29q4.35-5.21,12.64-8.68a11.3,11.3,0,0,1,5-1,18.89,18.89,0,0,1,7,1.35,26,26,0,0,1,5.5,2.9,11.43,11.43,0,0,1,2.31,2,12.16,12.16,0,0,1,2.13,3.08,6,6,0,0,1,.57,3.28,3.85,3.85,0,0,1-2.31,2.8,36,36,0,0,0-11.49,9.94,27.35,27.35,0,0,0-3.86,26.93q2.61,6.56,5.12,12.73a40.57,40.57,0,0,1,1.54,3.86,64.83,64.83,0,0,0,17.76-13.22,92.46,92.46,0,0,0,13.51-17.66c.26-.38.51-.58.77-.58.64,0,1.26.55,1.83,1.65a3.24,3.24,0,0,1,.49,2.6A75.33,75.33,0,0,1,1045,358.37a86,86,0,0,1-19.2,16.21,24,24,0,0,1-1.93,8.78A17,17,0,0,1,1018.69,390Zm-21.81-7.72a5,5,0,0,0-.29,2.13,18.76,18.76,0,0,0,.29,1.93.42.42,0,0,1,.29.09.37.37,0,0,0,.29.1c.77-.39,2-.93,3.57-1.64a38.43,38.43,0,0,0,4.73-2.51,30.84,30.84,0,0,0,4-3,4.19,4.19,0,0,0,1.74-2.9v-.87a2,2,0,0,0-.19-.86q-5.79-.39-11-1.16c-.77,1.41-1.48,2.83-2.12,4.24A18.09,18.09,0,0,0,996.88,382.3Z" transform="translate(-982.14 -295.45)"/></svg>