<?xml version="1.0"?>
<svg width="380" height="420" xmlns="http://www.w3.org/2000/svg" xmlns:svg="http://www.w3.org/2000/svg">

 <g class="layer">
  <title>Layer 1</title>
  <path d="m211.26,13.16c-15.13,8.89 -6.69,9.32 -15.1,17.06c-18.78,-8.42 -40.81,-9.45 -61.35,-1.07c-20.3,8.27 -35.22,24.14 -42.84,42.97c-11.69,0.56 -8.69,1 -19.86,5.87c-22.52,9.83 -42.48,32.73 -44.46,63.13c-20.4,2.92 -32.12,38.76 -21.88,64.57c7.37,18.58 20.05,34.24 36.59,45.25c15.92,10.59 34.4,16.26 53.44,16.4l5.43,0.05l33.93,83.2c16.32,40.03 71.84,79.47 150.8,47.28c78.96,-32.2 91.19,-100.27 74.43,-141.37l-33.14,-81.28l3.85,-3.83c13.51,-13.42 22.76,-30.4 26.73,-49.1c4.07,-19.14 2.31,-38.86 -5.11,-57.07c-7.82,-19.16 -34.27,-60.27 -71.99,-44.89c-18.17,-15.47 -54.34,-16.07 -69.47,-7.17z" fill="#F96B11" id="svg_6" stroke="#13017C" stroke-miterlimit="10"/>
 </g>
</svg>