<svg width="866" height="965" viewBox="0 0 866 965" fill="none" xmlns="http://www.w3.org/2000/svg">
<path d="M409.222 222.151C399.49 228.927 392.247 237.226 395.444 244.616C376.673 236.189 354.635 235.164 334.097 243.539C313.799 251.815 298.876 267.684 291.262 286.512C284.699 279.264 270.4 284.241 259.918 288.515C240.611 296.387 216.314 332.623 221.384 349.454C195.492 365.411 192.949 390.401 205.405 420.949C212.824 439.144 225.364 454.485 241.644 465.331C257.563 475.925 276.042 481.598 295.085 481.739L300.513 481.782L337.462 572.032C352.575 608.937 394.713 626.627 431.641 611.57L519.573 575.716C559.26 559.534 578.195 514.146 561.772 474.556L526.542 389.61L530.392 385.783C543.903 372.358 553.148 355.381 557.124 336.687C561.187 317.546 559.429 297.819 552.006 279.614C538.543 246.594 520.98 214.327 477.301 227.633C459.682 208.736 424.474 211.537 409.222 222.151Z" fill="#FFB281"/>
<path d="M332.631 237.268C282.692 257.63 258.721 314.608 279.083 364.546C280.778 368.704 285.523 370.7 289.681 369.005C293.838 367.31 295.844 362.561 294.149 358.403C285.94 338.272 286.061 316.16 294.494 296.134C302.932 276.095 318.643 260.542 338.774 252.334C358.895 244.129 381.007 244.25 401.047 252.688C421.069 261.112 436.626 276.832 444.83 296.953L444.834 296.963C446.529 301.12 451.283 303.113 455.441 301.418C459.599 299.722 461.604 294.974 459.909 290.816C439.538 240.881 382.56 216.91 332.631 237.268Z" fill="#FFB281"/>
<path d="M411.034 432.68C411.522 431.519 412.743 431.335 413.702 432.391C416.051 434.867 418.289 437.335 420.6 439.827C444.423 465.621 468.232 491.411 492.036 517.159C492.631 517.824 493.229 518.498 492.795 519.42C492.389 520.384 491.474 520.39 490.61 520.365C476.241 520.111 461.891 519.904 447.503 519.604C437.454 529.814 427.339 539.996 417.272 550.16C416.626 550.801 416.064 551.408 415.068 551.058C414.011 550.69 413.939 549.747 413.9 548.856C412.908 510.642 411.921 472.437 410.901 434.181C410.926 433.739 410.811 433.192 411.034 432.68Z" fill="#4980B4"/>
<path d="M392.611 388.16C420.277 376.448 450.942 376.277 478.849 387.642L479.761 388.026L467.169 393.322C464.891 394.305 463.819 396.945 464.755 399.241C465.738 401.519 468.332 402.61 470.628 401.674L470.675 401.655L493.276 392.116C495.553 391.133 496.626 388.493 495.689 386.196L486.15 363.595C485.167 361.318 482.546 360.291 480.231 361.181C477.953 362.164 476.88 364.804 477.817 367.101L483.113 379.693L482.201 379.309C452.548 367.21 420 367.241 390.387 379.315C389.924 379.504 389.517 379.67 389.054 379.859C359.175 392.473 335.9 416.013 323.655 446.104C314.9 467.644 312.456 491.103 316.637 513.859C320.684 536.021 330.799 556.616 345.826 573.341C347.122 574.799 349.155 575.202 350.859 574.507C351.322 574.318 351.738 574.04 352.19 573.694C354.031 572.036 354.21 569.166 352.543 567.329C323.463 534.942 315.561 489.794 332 449.462C343.362 421.654 364.881 399.845 392.611 388.16Z" fill="#020203"/>
<path d="M422.265 434.957C420.524 433.043 418.788 431.17 417 429.275C415.128 427.306 412.435 426.633 410.138 427.569C408.666 428.17 407.532 429.334 406.86 430.839C406.243 432.214 406.322 433.467 406.383 434.144L406.393 434.302C407.018 458.983 407.661 483.71 408.336 508.381L409.373 548.931C409.461 552.167 410.824 554.344 413.473 555.305C414.921 555.837 416.416 555.822 417.796 555.259C419.037 554.753 419.876 553.925 420.461 553.373L430.603 543.126C436.826 536.83 443.109 530.521 449.314 524.179C459.1 524.368 468.889 524.567 478.702 524.691L490.521 524.861C491.237 524.893 492.458 524.87 493.699 524.364C495.125 523.783 496.278 522.665 496.903 521.179C497.959 518.761 497.403 516.364 495.287 514.062C475.705 492.867 456.108 471.634 436.507 450.393L422.265 434.957ZM478.893 515.703C468.467 515.505 458.05 515.357 447.62 515.15C447.016 515.126 446.385 515.275 445.83 515.502C445.274 515.728 444.766 516.044 444.305 516.502C437.635 523.293 430.95 530.047 424.261 536.791L418.25 542.838L417.321 508.195C416.723 485.804 416.146 463.36 415.548 440.969L415.567 441.015L429.879 456.519C448.128 476.271 466.367 496.026 484.592 515.723L478.893 515.703Z" fill="#020203"/>
<path d="M410.399 227.157C395.267 236.049 403.715 236.481 395.295 244.223C376.524 235.797 354.486 234.772 333.948 243.146C313.65 251.422 298.727 267.291 291.112 286.12C279.417 286.677 282.415 287.117 271.25 291.994C248.734 301.822 228.774 324.724 226.794 355.121C206.387 358.042 194.67 393.879 204.914 419.691C212.285 438.273 224.963 453.925 241.504 464.935C257.422 475.529 275.902 481.202 294.945 481.342L300.373 481.386L334.297 564.586C350.619 604.616 406.142 644.062 485.101 611.867C564.059 579.673 576.291 511.596 559.535 470.5L526.393 389.218L530.243 385.391C543.754 371.966 552.998 354.989 556.974 336.294C561.038 317.153 559.28 297.427 551.857 279.222C544.045 260.063 517.594 218.947 479.869 234.329C461.705 218.862 425.532 218.265 410.399 227.157Z" fill="#F96B11" stroke="#13017C" stroke-miterlimit="10"/>
</svg>
