<svg width="38" height="22" viewBox="0 0 38 22" fill="none" xmlns="http://www.w3.org/2000/svg">
<path d="M18.6296 9.93378C21.3853 9.93378 23.6005 7.70584 23.6005 4.96771C23.6037 2.22156 21.3853 0 18.6296 0C15.893 0 13.6715 2.22156 13.6715 4.96771C13.6715 7.70911 15.8931 9.93378 18.6296 9.93378Z" fill="black"/>
<path d="M22.6168 10.7431H14.6551C13.2316 10.7431 12.0657 12.0482 12.0657 13.6492V21.6461C12.0657 21.7341 12.1105 21.8124 12.1153 21.9036H25.1518C25.1614 21.8125 25.1983 21.7341 25.1983 21.6461V13.6492C25.203 12.0482 24.0371 10.7431 22.6168 10.7431Z" fill="black"/>
<path d="M32.0006 12.3041C34.2125 12.3041 35.9863 10.524 35.9863 8.32486C35.9863 6.12569 34.2125 4.34241 32.0006 4.34241C29.8046 4.34241 28.0277 6.12569 28.0277 8.32486C28.023 10.5225 29.8047 12.3041 32.0006 12.3041Z" fill="black"/>
<path d="M35.1977 12.9534H28.8178C27.6726 12.9534 26.7369 13.9994 26.7369 15.287V21.6941C26.7369 21.7629 26.7705 21.8285 26.7753 21.9037H37.2322C37.237 21.8285 37.2689 21.7629 37.2689 21.6941V15.287C37.2737 13.9994 36.3397 12.9534 35.1977 12.9534Z" fill="black"/>
<path d="M5.26522 12.3041C7.47395 12.3041 9.2493 10.524 9.2493 8.32486C9.2493 6.12569 7.47395 4.34241 5.26522 4.34241C3.06768 4.34241 1.29077 6.12569 1.29077 8.32486C1.29077 10.524 3.06768 12.3041 5.26522 12.3041Z" fill="black"/>
<path d="M8.46072 12.9534H2.07438C0.93246 12.9534 0 13.9994 0 15.287V21.6941C0 21.7629 0.0335881 21.8285 0.0399647 21.9037H10.4968C10.5016 21.8285 10.532 21.7629 10.532 21.6941V15.287C10.5352 13.9994 9.60109 12.9534 8.46072 12.9534Z" fill="black"/>
</svg>
