<svg width="34" height="34" viewBox="0 0 34 34" fill="none" xmlns="http://www.w3.org/2000/svg">
<path d="M20 5.81651H18.3333C18.3333 6.55387 18.8178 7.20359 19.5247 7.41392L20 5.81651ZM22.217 6.73566L21.423 8.20101C22.0715 8.55244 22.8738 8.43576 23.3955 7.91416L22.217 6.73566ZM26.931 11.4497L25.7525 10.2712C25.231 10.7928 25.1143 11.5952 25.4657 12.2437L26.931 11.4497ZM27.8502 13.6667L26.2528 14.1422C26.4632 14.8489 27.1128 15.3334 27.8502 15.3334V13.6667ZM27.8502 20.3334V18.6667C27.1128 18.6667 26.4632 19.1512 26.2528 19.858L27.8502 20.3334ZM26.931 22.5504L25.4657 21.7564C25.1143 22.4049 25.231 23.2074 25.7525 23.7289L26.931 22.5504ZM22.217 27.2644L23.3955 26.0859C22.8738 25.5644 22.0715 25.4477 21.423 25.799L22.217 27.2644ZM20 28.1835L19.5247 26.5862C18.8178 26.7965 18.3333 27.4462 18.3333 28.1835H20ZM13.3333 28.1835H15C15 27.4462 14.5155 26.7965 13.8088 26.5862L13.3333 28.1835ZM11.1163 27.2644L11.9104 25.799C11.2618 25.4475 10.4594 25.5642 9.93782 26.0859L11.1163 27.2644ZM6.4023 22.5504L7.58082 23.7289C8.1024 23.2072 8.2191 22.4049 7.86767 21.7562L6.4023 22.5504ZM5.48315 20.3334L7.08058 19.8579C6.87025 19.1512 6.22052 18.6667 5.48315 18.6667V20.3334ZM5.48315 13.6667V15.3334C6.22052 15.3334 6.87025 14.8489 7.08058 14.142L5.48315 13.6667ZM6.4023 11.4497L7.86767 12.2438C8.2191 11.5952 8.10242 10.7928 7.58082 10.2712L6.4023 11.4497ZM11.1163 6.73569L9.93783 7.91419C10.4594 8.43579 11.2618 8.55247 11.9104 8.20104L11.1163 6.73569ZM13.3333 5.81651L13.8088 7.41392C14.5155 7.20359 15 6.55387 15 5.81651H13.3333ZM15 0.333374C13.1591 0.333374 11.6667 1.82576 11.6667 3.66671H15V0.333374ZM18.3333 0.333374H15V3.66671H18.3333V0.333374ZM21.6667 3.66671C21.6667 1.82576 20.1743 0.333374 18.3333 0.333374V3.66671H21.6667ZM21.6667 5.81651V3.66671H18.3333V5.81651H21.6667ZM23.011 5.27029C22.2118 4.83726 21.3632 4.48327 20.4755 4.21909L19.5247 7.41392C20.1887 7.61156 20.824 7.87649 21.423 8.20101L23.011 5.27029ZM22.5592 4.03637L21.0385 5.55714L23.3955 7.91416L24.9163 6.39339L22.5592 4.03637ZM27.2733 4.03637C25.9715 2.73462 23.861 2.73462 22.5592 4.03637L24.9163 6.39339L27.2733 4.03637ZM29.6303 6.39341L27.2733 4.03637L24.9163 6.39339L27.2733 8.75042L29.6303 6.39341ZM29.6303 11.1074C30.932 9.80569 30.932 7.69514 29.6303 6.39341L27.2733 8.75042L29.6303 11.1074ZM28.1095 12.6282L29.6303 11.1074L27.2733 8.75042L25.7525 10.2712L28.1095 12.6282ZM29.4477 13.1913C29.1835 12.3036 28.8295 11.4548 28.3963 10.6556L25.4657 12.2437C25.7902 12.8426 26.0552 13.478 26.2528 14.1422L29.4477 13.1913ZM27.8502 15.3334H30V12H27.8502V15.3334ZM30 15.3334H33.3333C33.3333 13.4924 31.841 12 30 12V15.3334ZM30 15.3334V18.6667H33.3333V15.3334H30ZM30 18.6667V22C31.841 22 33.3333 20.5077 33.3333 18.6667H30ZM30 18.6667H27.8502V22H30V18.6667ZM28.3963 23.3444C28.8295 22.5452 29.1835 21.6965 29.4477 20.8087L26.2528 19.858C26.0552 20.522 25.7902 21.1574 25.4657 21.7564L28.3963 23.3444ZM29.6303 22.8927L28.1095 21.3719L25.7525 23.7289L27.2733 25.2497L29.6303 22.8927ZM29.6303 27.6067C30.932 26.3049 30.932 24.1944 29.6303 22.8927L27.2733 25.2497L29.6303 27.6067ZM27.2733 29.9637L29.6303 27.6067L27.2733 25.2497L24.9163 27.6067L27.2733 29.9637ZM22.5592 29.9637C23.861 31.2654 25.9715 31.2654 27.2733 29.9637L24.9163 27.6067L22.5592 29.9637ZM21.0385 28.4429L22.5592 29.9637L24.9163 27.6067L23.3955 26.0859L21.0385 28.4429ZM20.4755 29.781C21.3632 29.5169 22.2118 29.1629 23.011 28.7297L21.423 25.799C20.824 26.1235 20.1887 26.3885 19.5247 26.5862L20.4755 29.781ZM21.6667 30.3334V28.1835H18.3333V30.3334H21.6667ZM18.3333 33.6667C20.1743 33.6667 21.6667 32.1744 21.6667 30.3334H18.3333V33.6667ZM15 33.6667H18.3333V30.3334H15V33.6667ZM11.6667 30.3334C11.6667 32.1744 13.1591 33.6667 15 33.6667V30.3334H11.6667ZM11.6667 28.1835V30.3334H15V28.1835H11.6667ZM10.3223 28.7297C11.1214 29.1629 11.9702 29.5169 12.858 29.781L13.8088 26.5862C13.1447 26.3885 12.5093 26.1235 11.9104 25.799L10.3223 28.7297ZM10.7741 29.9637L12.2948 28.4429L9.93782 26.0859L8.4171 27.6065L10.7741 29.9637ZM6.06007 29.9637C7.36182 31.2654 9.47237 31.2655 10.7741 29.9637L8.4171 27.6065L6.06007 29.9637ZM3.70305 27.6065L6.06007 29.9637L8.4171 27.6065L6.06007 25.2495L3.70305 27.6065ZM3.70305 22.8925C2.4013 24.1944 2.4013 26.3049 3.70305 27.6065L6.06007 25.2495L3.70305 22.8925ZM5.22378 21.3719L3.70305 22.8925L6.06007 25.2495L7.58082 23.7289L5.22378 21.3719ZM3.88573 20.8087C4.14993 21.6965 4.5039 22.5452 4.93695 23.3444L7.86767 21.7562C7.54315 21.1574 7.27822 20.522 7.08058 19.8579L3.88573 20.8087ZM5.48315 18.6667H3.33333V22H5.48315V18.6667ZM3.33333 18.6667H0C0 20.5077 1.49238 22 3.33333 22V18.6667ZM3.33333 18.6667V15.3334H0V18.6667H3.33333ZM3.33333 15.3334V12C1.49238 12 0 13.4924 0 15.3334H3.33333ZM3.33333 15.3334H5.48315V12H3.33333V15.3334ZM4.93695 10.6557C4.50392 11.4548 4.14993 12.3036 3.88573 13.1913L7.08058 14.142C7.27822 13.4781 7.54315 12.8427 7.86767 12.2438L4.93695 10.6557ZM3.70305 11.1075L5.2238 12.6283L7.58082 10.2712L6.06008 8.75049L3.70305 11.1075ZM3.70305 6.39347C2.4013 7.69522 2.40132 9.80577 3.70305 11.1075L6.06008 8.75049L3.70305 6.39347ZM6.06008 4.03646L3.70305 6.39347L6.06008 8.75049L8.4171 6.39347L6.06008 4.03646ZM10.7741 4.03646C9.47238 2.73471 7.36183 2.73471 6.06008 4.03646L8.4171 6.39347L10.7741 4.03646ZM12.2948 5.55717L10.7741 4.03646L8.4171 6.39347L9.93783 7.91419L12.2948 5.55717ZM12.858 4.21909C11.9702 4.48329 11.1214 4.83727 10.3223 5.27034L11.9104 8.20104C12.5093 7.87651 13.1447 7.61157 13.8088 7.41392L12.858 4.21909ZM11.6667 3.66671V5.81651H15V3.66671H11.6667Z" fill="black"/>
<path fill-rule="evenodd" clip-rule="evenodd" d="M16.6667 14.5C15.286 14.5 14.1667 15.6193 14.1667 17C14.1667 18.3807 15.286 19.5 16.6667 19.5C18.0475 19.5 19.1667 18.3807 19.1667 17C19.1667 15.6193 18.0475 14.5 16.6667 14.5ZM9.16675 17C9.16675 12.8579 12.5246 9.5 16.6667 9.5C20.8089 9.5 24.1667 12.8579 24.1667 17C24.1667 21.1421 20.8089 24.5 16.6667 24.5C12.5246 24.5 9.16675 21.1421 9.16675 17Z" fill="black"/>
</svg>
