<svg width="29" height="29" viewBox="0 0 29 29" fill="none" xmlns="http://www.w3.org/2000/svg">
<path fill-rule="evenodd" clip-rule="evenodd" d="M0 5.8C0 2.59675 2.59675 0 5.8 0H23.2C26.4032 0 29 2.59675 29 5.8V23.2C29 26.4032 26.4032 29 23.2 29H5.8C2.59675 29 0 26.4032 0 23.2V5.8ZM5.8 2.9C4.19837 2.9 2.9 4.19837 2.9 5.8V23.2C2.9 24.8017 4.19837 26.1 5.8 26.1H23.2C24.8017 26.1 26.1 24.8017 26.1 23.2V5.8C26.1 4.19837 24.8017 2.9 23.2 2.9H5.8ZM14.5 10.15C12.0975 10.15 10.15 12.0975 10.15 14.5C10.15 16.9025 12.0975 18.85 14.5 18.85C16.9025 18.85 18.85 16.9025 18.85 14.5C18.85 12.0975 16.9025 10.15 14.5 10.15ZM7.25 14.5C7.25 10.4959 10.4959 7.25 14.5 7.25C18.504 7.25 21.75 10.4959 21.75 14.5C21.75 18.504 18.504 21.75 14.5 21.75C10.4959 21.75 7.25 18.504 7.25 14.5ZM22.475 8.7C23.6762 8.7 24.65 7.72622 24.65 6.525C24.65 5.32378 23.6762 4.35 22.475 4.35C21.2738 4.35 20.3 5.32378 20.3 6.525C20.3 7.72622 21.2738 8.7 22.475 8.7Z" fill="#030303"/>
</svg>
